<svg width="84" height="80" viewBox="0 0 84 80" fill="none" xmlns="http://www.w3.org/2000/svg">
<g clip-path="url(#clip0_34_108793)">
<path fill-rule="evenodd" clip-rule="evenodd" d="M18.4001 7H67.6001V14.3H18.4001V7ZM38.9001 17.95H47.1001V25.25H59.3999V32.55H34.7999V39.85H51.1999H59.3999H59.3999V47.15H59.3999V54.45H59.3999V61.75L59.3999 61.75H51.1999L47.1001 61.75V69.05H38.9001V61.75L26.5999 61.75V54.45H38.9001H47.1001H51.1999V47.15L26.5999 47.15V39.85V32.55V25.25H34.7999H38.9001V17.95ZM10.2 21.6H2V65.4L10.1999 65.4V72.7H18.3999V65.4L10.2 65.4V21.6ZM75.8001 21.6H84.0001V65.4H75.8001V21.6ZM75.7999 14.3H67.5999V21.6H75.7999V14.3ZM10.1999 14.3H18.3999V21.6H10.1999V14.3ZM67.6001 80H18.4001V72.7L67.5999 72.7V65.4H75.7999V72.7L67.6001 72.7V80Z" fill="black"/>
</g>
<defs>
<clipPath id="clip0_34_108793">
<rect width="84" height="80" fill="white"/>
</clipPath>
</defs>
</svg>
