<svg width="51" height="85" viewBox="0 0 51 85" fill="none" xmlns="http://www.w3.org/2000/svg">
<path fill-rule="evenodd" clip-rule="evenodd" d="M25.5 0H30.6V30.9091H51V38.6364L30.6 38.6364H25.5V30.9091V15.4546H20.4002V23.1818H15.3002V15.4545H20.4001V7.72729H25.5V0ZM20.4001 46.3636H5.1V38.6364H0V46.3636V46.3637V54.0909H20.4001V85H25.5001V77.2727H30.6V69.5454L35.6999 69.5454V61.8182L40.7998 61.8182V54.0909H35.6998V61.8182L30.5999 61.8182V69.5454L25.5001 69.5454V46.3636H25.5H20.4001ZM51.0001 38.6364V46.3637H45.9002V54.0909H40.8002V46.3636H45.9001V38.6364H51.0001ZM5.09989 30.9091L10.1998 30.9091V23.1818H15.2998V30.9091L10.1999 30.9091V38.6364H5.09989V30.9091Z" fill="black"/>
</svg>
