<svg width="67" height="69" viewBox="0 0 67 69" fill="none" xmlns="http://www.w3.org/2000/svg">
<g filter="url(#filter0_d_303_55067)">
<g filter="url(#filter1_d_303_55067)">
<path fill-rule="evenodd" clip-rule="evenodd" d="M11.1665 37.375L11.1665 31.625L44.6665 31.625L44.6665 25.875L50.2498 25.875L50.2498 31.625L55.8332 31.625L55.8332 37.375L50.2498 37.375L50.2498 43.125L44.6665 43.125L44.6665 37.375L11.1665 37.375ZM44.6665 43.125L44.6665 48.875L39.0832 48.875L39.0832 43.125L44.6665 43.125ZM39.0832 20.125L44.6665 20.125L44.6665 25.875L39.0832 25.875L39.0832 20.125ZM39.0832 20.125L33.4998 20.125L33.4998 14.375L39.0832 14.375L39.0832 20.125ZM33.4998 54.625L33.4998 48.875L39.0832 48.875L39.0832 54.625L33.4998 54.625Z" fill="black"/>
</g>
</g>
<defs>
<filter id="filter0_d_303_55067" x="-10" y="0" width="77" height="77" filterUnits="userSpaceOnUse" color-interpolation-filters="sRGB">
<feFlood flood-opacity="0" result="BackgroundImageFix"/>
<feColorMatrix in="SourceAlpha" type="matrix" values="0 0 0 0 0 0 0 0 0 0 0 0 0 0 0 0 0 0 127 0" result="hardAlpha"/>
<feOffset dx="-6" dy="4"/>
<feGaussianBlur stdDeviation="2"/>
<feComposite in2="hardAlpha" operator="out"/>
<feColorMatrix type="matrix" values="0 0 0 0 0 0 0 0 0 0 0 0 0 0 0 0 0 0 0.25 0"/>
<feBlend mode="normal" in2="BackgroundImageFix" result="effect1_dropShadow_303_55067"/>
<feBlend mode="normal" in="SourceGraphic" in2="effect1_dropShadow_303_55067" result="shape"/>
</filter>
<filter id="filter1_d_303_55067" x="2.1665" y="13.375" width="53.6665" height="48.25" filterUnits="userSpaceOnUse" color-interpolation-filters="sRGB">
<feFlood flood-opacity="0" result="BackgroundImageFix"/>
<feColorMatrix in="SourceAlpha" type="matrix" values="0 0 0 0 0 0 0 0 0 0 0 0 0 0 0 0 0 0 127 0" result="hardAlpha"/>
<feOffset dx="-5" dy="3"/>
<feGaussianBlur stdDeviation="2"/>
<feComposite in2="hardAlpha" operator="out"/>
<feColorMatrix type="matrix" values="0 0 0 0 0 0 0 0 0 0 0 0 0 0 0 0 0 0 0.25 0"/>
<feBlend mode="normal" in2="BackgroundImageFix" result="effect1_dropShadow_303_55067"/>
<feBlend mode="normal" in="SourceGraphic" in2="effect1_dropShadow_303_55067" result="shape"/>
</filter>
</defs>
</svg>
