<svg width="100" height="100" viewBox="0 0 100 100" fill="none" xmlns="http://www.w3.org/2000/svg">
<g clip-path="url(#clip0_34_55048)">
<rect width="4.16667" height="4.16667" fill="#FFE500"/>
<rect width="4.16667" height="4.16667" transform="translate(0 4.16666)" fill="#FFE500"/>
<rect width="4.16667" height="4.16667" transform="translate(0 8.33334)" fill="#FFE500"/>
<rect width="4.16667" height="4.16667" transform="translate(0 12.5)" fill="#FFE500"/>
<rect width="4.16667" height="4.16667" transform="translate(0 16.6667)" fill="#FFE500"/>
<rect width="4.16667" height="4.16667" transform="translate(0 20.8333)" fill="#FFE500"/>
<rect width="4.16667" height="4.16667" transform="translate(0 25)" fill="#FFE500"/>
<rect width="4.16667" height="4.16667" transform="translate(0 29.1667)" fill="#FFE500"/>
<rect width="4.16667" height="4.16667" transform="translate(0 33.3333)" fill="#FFE500"/>
<rect width="4.16667" height="4.16667" transform="translate(0 37.5)" fill="#FFE500"/>
<rect width="4.16667" height="4.16666" transform="translate(0 41.6667)" fill="#FFE500"/>
<rect width="4.16667" height="4.16667" transform="translate(0 45.8333)" fill="#FFE500"/>
<rect width="4.16667" height="4.16667" transform="translate(0 50)" fill="#FFE500"/>
<rect width="4.16667" height="4.16666" transform="translate(0 54.1667)" fill="#FFE500"/>
<rect width="4.16667" height="4.16667" transform="translate(0 58.3333)" fill="#FFE500"/>
<rect width="4.16667" height="4.16666" transform="translate(0 62.5)" fill="#FFE500"/>
<rect width="4.16667" height="4.16667" transform="translate(0 66.6667)" fill="#FFE500"/>
<rect width="4.16667" height="4.16666" transform="translate(0 70.8333)" fill="#FFE500"/>
<rect width="4.16667" height="4.16666" transform="translate(0 75)" fill="#FFE500"/>
<rect width="4.16667" height="4.16667" transform="translate(0 79.1667)" fill="#FFE500"/>
<rect width="4.16667" height="4.16666" transform="translate(0 83.3333)" fill="#FFE500"/>
<rect width="4.16667" height="4.16666" transform="translate(0 87.5)" fill="#FFE500"/>
<rect width="4.16667" height="4.16667" transform="translate(0 91.6667)" fill="#FFE500"/>
<rect width="4.16667" height="4.16666" transform="translate(0 95.8333)" fill="#FFE500"/>
<rect width="4.16667" height="4.16667" transform="translate(4.1665)" fill="#FFE500"/>
<rect width="4.16667" height="4.16667" transform="translate(4.1665 4.16666)" fill="#FFE500"/>
<rect width="4.16667" height="4.16667" transform="translate(4.1665 8.33334)" fill="#FFE500"/>
<rect width="4.16667" height="4.16667" transform="translate(4.1665 12.5)" fill="#FFE500"/>
<rect width="4.16667" height="4.16667" transform="translate(4.1665 16.6667)" fill="#FFE500"/>
<rect width="4.16667" height="4.16667" transform="translate(4.1665 20.8333)" fill="#FFE500"/>
<rect width="4.16667" height="4.16667" transform="translate(4.1665 25)" fill="#FFE500"/>
<rect width="4.16667" height="4.16667" transform="translate(4.1665 29.1667)" fill="#FFE500"/>
<rect width="4.16667" height="4.16667" transform="translate(4.1665 33.3333)" fill="#FFE500"/>
<rect width="4.16667" height="4.16667" transform="translate(4.1665 37.5)" fill="#FFE500"/>
<rect width="4.16667" height="4.16666" transform="translate(4.1665 41.6667)" fill="#FFE500"/>
<rect width="4.16667" height="4.16667" transform="translate(4.1665 45.8333)" fill="#FFE500"/>
<rect width="4.16667" height="4.16667" transform="translate(4.1665 50)" fill="#FFE500"/>
<rect width="4.16667" height="4.16666" transform="translate(4.1665 54.1667)" fill="#FFE500"/>
<rect width="4.16667" height="4.16667" transform="translate(4.1665 58.3333)" fill="#FFE500"/>
<rect width="4.16667" height="4.16666" transform="translate(4.1665 62.5)" fill="#FFE500"/>
<rect width="4.16667" height="4.16667" transform="translate(4.1665 66.6667)" fill="#FFE500"/>
<rect width="4.16667" height="4.16666" transform="translate(4.1665 70.8333)" fill="#FFE500"/>
<rect width="4.16667" height="4.16666" transform="translate(4.1665 75)" fill="#FFE500"/>
<rect width="4.16667" height="4.16667" transform="translate(4.1665 79.1667)" fill="#FFE500"/>
<rect width="4.16667" height="4.16666" transform="translate(4.1665 83.3333)" fill="#FFE500"/>
<rect width="4.16667" height="4.16666" transform="translate(4.1665 87.5)" fill="#FFE500"/>
<rect width="4.16667" height="4.16667" transform="translate(4.1665 91.6667)" fill="#FFE500"/>
<rect width="4.16667" height="4.16666" transform="translate(4.1665 95.8333)" fill="#FFE500"/>
<rect width="4.16667" height="4.16667" transform="translate(8.3335)" fill="#FFE500"/>
<rect width="4.16667" height="4.16667" transform="translate(8.3335 4.16666)" fill="#FFE500"/>
<rect width="4.16667" height="4.16667" transform="translate(8.3335 8.33334)" fill="#FFE500"/>
<rect width="4.16667" height="4.16667" transform="translate(8.3335 12.5)" fill="#FFE500"/>
<rect width="4.16667" height="4.16667" transform="translate(8.3335 16.6667)" fill="#FFE500"/>
<rect width="4.16667" height="4.16667" transform="translate(8.3335 20.8333)" fill="#FFE500"/>
<rect width="4.16667" height="4.16667" transform="translate(8.3335 25)" fill="#FFE500"/>
<rect width="4.16667" height="4.16667" transform="translate(8.3335 29.1667)" fill="#FFE500"/>
<rect width="4.16667" height="4.16667" transform="translate(8.3335 33.3333)" fill="#FFE500"/>
<rect width="4.16667" height="4.16667" transform="translate(8.3335 37.5)" fill="#FFE500"/>
<rect width="4.16667" height="4.16666" transform="translate(8.3335 41.6667)" fill="#FFE500"/>
<rect width="4.16667" height="4.16667" transform="translate(8.3335 45.8333)" fill="#FFE500"/>
<rect width="4.16667" height="4.16667" transform="translate(8.3335 50)" fill="black"/>
<rect width="4.16667" height="4.16666" transform="translate(8.3335 54.1667)" fill="black"/>
<rect width="4.16667" height="4.16667" transform="translate(8.3335 58.3333)" fill="black"/>
<rect width="4.16667" height="4.16666" transform="translate(8.3335 62.5)" fill="black"/>
<rect width="4.16667" height="4.16667" transform="translate(8.3335 66.6667)" fill="black"/>
<rect width="4.16667" height="4.16666" transform="translate(8.3335 70.8333)" fill="black"/>
<rect width="4.16667" height="4.16666" transform="translate(8.3335 75)" fill="#FFE500"/>
<rect width="4.16667" height="4.16667" transform="translate(8.3335 79.1667)" fill="#FFE500"/>
<rect width="4.16667" height="4.16666" transform="translate(8.3335 83.3333)" fill="#FFE500"/>
<rect width="4.16667" height="4.16666" transform="translate(8.3335 87.5)" fill="#FFE500"/>
<rect width="4.16667" height="4.16667" transform="translate(8.3335 91.6667)" fill="#FFE500"/>
<rect width="4.16667" height="4.16666" transform="translate(8.3335 95.8333)" fill="#FFE500"/>
<rect width="4.16667" height="4.16667" transform="translate(12.5)" fill="#FFE500"/>
<rect width="4.16667" height="4.16667" transform="translate(12.5 4.16666)" fill="#FFE500"/>
<rect width="4.16667" height="4.16667" transform="translate(12.5 8.33334)" fill="#FFE500"/>
<rect width="4.16667" height="4.16667" transform="translate(12.5 12.5)" fill="#FFE500"/>
<rect width="4.16667" height="4.16667" transform="translate(12.5 16.6667)" fill="#FFE500"/>
<rect width="4.16667" height="4.16667" transform="translate(12.5 20.8333)" fill="#FFE500"/>
<rect width="4.16667" height="4.16667" transform="translate(12.5 25)" fill="#FFE500"/>
<rect width="4.16667" height="4.16667" transform="translate(12.5 29.1667)" fill="#FFE500"/>
<rect width="4.16667" height="4.16667" transform="translate(12.5 33.3333)" fill="#FFE500"/>
<rect width="4.16667" height="4.16667" transform="translate(12.5 37.5)" fill="#FFE500"/>
<rect width="4.16667" height="4.16666" transform="translate(12.5 41.6667)" fill="#FFE500"/>
<rect width="4.16667" height="4.16667" transform="translate(12.5 45.8333)" fill="black"/>
<rect width="4.16667" height="4.16667" transform="translate(12.5 50)" fill="#F0DFC4"/>
<rect width="4.16667" height="4.16666" transform="translate(12.5 54.1667)" fill="#FBF3E4"/>
<rect width="4.16667" height="4.16667" transform="translate(12.5 58.3333)" fill="#C8A072"/>
<rect width="4.16667" height="4.16666" transform="translate(12.5 62.5)" fill="#C8A072"/>
<rect width="4.16667" height="4.16667" transform="translate(12.5 66.6667)" fill="#C8A072"/>
<rect width="4.16667" height="4.16666" transform="translate(12.5 70.8333)" fill="#C8A072"/>
<rect width="4.16667" height="4.16666" transform="translate(12.5 75)" fill="black"/>
<rect width="4.16667" height="4.16667" transform="translate(12.5 79.1667)" fill="black"/>
<rect width="4.16667" height="4.16666" transform="translate(12.5 83.3333)" fill="#FFE500"/>
<rect width="4.16667" height="4.16666" transform="translate(12.5 87.5)" fill="#FFE500"/>
<rect width="4.16667" height="4.16667" transform="translate(12.5 91.6667)" fill="#FFE500"/>
<rect width="4.16667" height="4.16666" transform="translate(12.5 95.8333)" fill="#FFE500"/>
<rect width="4.16667" height="4.16667" transform="translate(16.6665)" fill="#FFE500"/>
<rect width="4.16667" height="4.16667" transform="translate(16.6665 4.16666)" fill="#FFE500"/>
<rect width="4.16667" height="4.16667" transform="translate(16.6665 8.33334)" fill="#FFE500"/>
<rect width="4.16667" height="4.16667" transform="translate(16.6665 12.5)" fill="#FFE500"/>
<rect width="4.16667" height="4.16667" transform="translate(16.6665 16.6667)" fill="#FFE500"/>
<rect width="4.16667" height="4.16667" transform="translate(16.6665 20.8333)" fill="#FFE500"/>
<rect width="4.16667" height="4.16667" transform="translate(16.6665 25)" fill="#FFE500"/>
<rect width="4.16667" height="4.16667" transform="translate(16.6665 29.1667)" fill="#FFE500"/>
<rect width="4.16667" height="4.16667" transform="translate(16.6665 33.3333)" fill="#FFE500"/>
<rect width="4.16667" height="4.16667" transform="translate(16.6665 37.5)" fill="#FFE500"/>
<rect width="4.16667" height="4.16666" transform="translate(16.6665 41.6667)" fill="#FFE500"/>
<rect width="4.16667" height="4.16667" transform="translate(16.6665 45.8333)" fill="black"/>
<rect width="4.16667" height="4.16667" transform="translate(16.6665 50)" fill="#FBF3E4"/>
<rect width="4.16667" height="4.16666" transform="translate(16.6665 54.1667)" fill="#F0DFC4"/>
<rect width="4.16667" height="4.16667" transform="translate(16.6665 58.3333)" fill="#F0DFC4"/>
<rect width="4.16667" height="4.16666" transform="translate(16.6665 62.5)" fill="#F0DFC4"/>
<rect width="4.16667" height="4.16667" transform="translate(16.6665 66.6667)" fill="#F0DFC4"/>
<rect width="4.16667" height="4.16666" transform="translate(16.6665 70.8333)" fill="#C8A072"/>
<rect width="4.16667" height="4.16666" transform="translate(16.6665 75)" fill="#C8A072"/>
<rect width="4.16667" height="4.16667" transform="translate(16.6665 79.1667)" fill="#C8A072"/>
<rect width="4.16667" height="4.16666" transform="translate(16.6665 83.3333)" fill="black"/>
<rect width="4.16667" height="4.16666" transform="translate(16.6665 87.5)" fill="black"/>
<rect width="4.16667" height="4.16667" transform="translate(16.6665 91.6667)" fill="#FFE500"/>
<rect width="4.16667" height="4.16666" transform="translate(16.6665 95.8333)" fill="#FFE500"/>
<rect width="4.16667" height="4.16667" transform="translate(20.8335)" fill="#FFE500"/>
<rect width="4.16667" height="4.16667" transform="translate(20.8335 4.16666)" fill="#FFE500"/>
<rect width="4.16667" height="4.16667" transform="translate(20.8335 8.33334)" fill="#FFE500"/>
<rect width="4.16667" height="4.16667" transform="translate(20.8335 12.5)" fill="black"/>
<rect width="4.16667" height="4.16667" transform="translate(20.8335 16.6667)" fill="black"/>
<rect width="4.16667" height="4.16667" transform="translate(20.8335 20.8333)" fill="black"/>
<rect width="4.16667" height="4.16667" transform="translate(20.8335 25)" fill="black"/>
<rect width="4.16667" height="4.16667" transform="translate(20.8335 29.1667)" fill="black"/>
<rect width="4.16667" height="4.16667" transform="translate(20.8335 33.3333)" fill="black"/>
<rect width="4.16667" height="4.16667" transform="translate(20.8335 37.5)" fill="black"/>
<rect width="4.16667" height="4.16666" transform="translate(20.8335 41.6667)" fill="black"/>
<rect width="4.16667" height="4.16667" transform="translate(20.8335 45.8333)" fill="black"/>
<rect width="4.16667" height="4.16667" transform="translate(20.8335 50)" fill="#FBF3E4"/>
<rect width="4.16667" height="4.16666" transform="translate(20.8335 54.1667)" fill="#F0DFC4"/>
<rect width="4.16667" height="4.16667" transform="translate(20.8335 58.3333)" fill="#F0DFC4"/>
<rect width="4.16667" height="4.16666" transform="translate(20.8335 62.5)" fill="#F0DFC4"/>
<rect width="4.16667" height="4.16667" transform="translate(20.8335 66.6667)" fill="#F0DFC4"/>
<rect width="4.16667" height="4.16666" transform="translate(20.8335 70.8333)" fill="#F0DFC4"/>
<rect width="4.16667" height="4.16666" transform="translate(20.8335 75)" fill="#C8A072"/>
<rect width="4.16667" height="4.16667" transform="translate(20.8335 79.1667)" fill="#C8A072"/>
<rect width="4.16667" height="4.16666" transform="translate(20.8335 83.3333)" fill="#C8A072"/>
<rect width="4.16667" height="4.16666" transform="translate(20.8335 87.5)" fill="#C8A072"/>
<rect width="4.16667" height="4.16667" transform="translate(20.8335 91.6667)" fill="black"/>
<rect width="4.16667" height="4.16666" transform="translate(20.8335 95.8333)" fill="#FFE500"/>
<rect width="4.16667" height="4.16667" transform="translate(25)" fill="#FFE500"/>
<rect width="4.16667" height="4.16667" transform="translate(25 4.16666)" fill="#FFE500"/>
<rect width="4.16667" height="4.16667" transform="translate(25 8.33334)" fill="black"/>
<rect width="4.16667" height="4.16667" transform="translate(25 12.5)" fill="#C8A072"/>
<rect width="4.16667" height="4.16667" transform="translate(25 16.6667)" fill="#C8A072"/>
<rect width="4.16667" height="4.16667" transform="translate(25 20.8333)" fill="#C8A072"/>
<rect width="4.16667" height="4.16667" transform="translate(25 25)" fill="#C8A072"/>
<rect width="4.16667" height="4.16667" transform="translate(25 29.1667)" fill="#C8A072"/>
<rect width="4.16667" height="4.16667" transform="translate(25 33.3333)" fill="#C8A072"/>
<rect width="4.16667" height="4.16667" transform="translate(25 37.5)" fill="#C8A072"/>
<rect width="4.16667" height="4.16666" transform="translate(25 41.6667)" fill="#C8A072"/>
<rect width="4.16667" height="4.16667" transform="translate(25 45.8333)" fill="#F0DFC4"/>
<rect width="4.16667" height="4.16667" transform="translate(25 50)" fill="#FBF3E4"/>
<rect width="4.16667" height="4.16666" transform="translate(25 54.1667)" fill="#F0DFC4"/>
<rect width="4.16667" height="4.16667" transform="translate(25 58.3333)" fill="#F0DFC4"/>
<rect width="4.16667" height="4.16666" transform="translate(25 62.5)" fill="#F0DFC4"/>
<rect width="4.16667" height="4.16667" transform="translate(25 66.6667)" fill="#F0DFC4"/>
<rect width="4.16667" height="4.16666" transform="translate(25 70.8333)" fill="#F0DFC4"/>
<rect width="4.16667" height="4.16666" transform="translate(25 75)" fill="#F0DFC4"/>
<rect width="4.16667" height="4.16667" transform="translate(25 79.1667)" fill="#F0DFC4"/>
<rect width="4.16667" height="4.16666" transform="translate(25 83.3333)" fill="#C8A072"/>
<rect width="4.16667" height="4.16666" transform="translate(25 87.5)" fill="#C8A072"/>
<rect width="4.16667" height="4.16667" transform="translate(25 91.6667)" fill="black"/>
<rect width="4.16667" height="4.16666" transform="translate(25 95.8333)" fill="#FFE500"/>
<rect width="4.16667" height="4.16667" transform="translate(29.1665)" fill="#FFE500"/>
<rect width="4.16667" height="4.16667" transform="translate(29.1665 4.16666)" fill="black"/>
<rect width="4.16667" height="4.16667" transform="translate(29.1665 8.33334)" fill="#C8A072"/>
<rect width="4.16667" height="4.16667" transform="translate(29.1665 12.5)" fill="#F0DFC4"/>
<rect width="4.16667" height="4.16667" transform="translate(29.1665 16.6667)" fill="#F0DFC4"/>
<rect width="4.16667" height="4.16667" transform="translate(29.1665 20.8333)" fill="#F0DFC4"/>
<rect width="4.16667" height="4.16667" transform="translate(29.1665 25)" fill="#F0DFC4"/>
<rect width="4.16667" height="4.16667" transform="translate(29.1665 29.1667)" fill="#F0DFC4"/>
<rect width="4.16667" height="4.16667" transform="translate(29.1665 33.3333)" fill="#F0DFC4"/>
<rect width="4.16667" height="4.16667" transform="translate(29.1665 37.5)" fill="#C8A072"/>
<rect width="4.16667" height="4.16666" transform="translate(29.1665 41.6667)" fill="#C8A072"/>
<rect width="4.16667" height="4.16667" transform="translate(29.1665 45.8333)" fill="#F0DFC4"/>
<rect width="4.16667" height="4.16667" transform="translate(29.1665 50)" fill="#FBF3E4"/>
<rect width="4.16667" height="4.16666" transform="translate(29.1665 54.1667)" fill="#C8A072"/>
<rect width="4.16667" height="4.16667" transform="translate(29.1665 58.3333)" fill="#C8A072"/>
<rect width="4.16667" height="4.16666" transform="translate(29.1665 62.5)" fill="#C8A072"/>
<rect width="4.16667" height="4.16667" transform="translate(29.1665 66.6667)" fill="#C8A072"/>
<rect width="4.16667" height="4.16666" transform="translate(29.1665 70.8333)" fill="#C8A072"/>
<rect width="4.16667" height="4.16666" transform="translate(29.1665 75)" fill="#C8A072"/>
<rect width="4.16667" height="4.16667" transform="translate(29.1665 79.1667)" fill="#C8A072"/>
<rect width="4.16667" height="4.16666" transform="translate(29.1665 83.3333)" fill="#C8A072"/>
<rect width="4.16667" height="4.16666" transform="translate(29.1665 87.5)" fill="#C8A072"/>
<rect width="4.16667" height="4.16667" transform="translate(29.1665 91.6667)" fill="black"/>
<rect width="4.16667" height="4.16666" transform="translate(29.1665 95.8333)" fill="#FFE500"/>
<rect width="4.16667" height="4.16667" transform="translate(33.3335)" fill="#FFE500"/>
<rect width="4.16667" height="4.16667" transform="translate(33.3335 4.16666)" fill="black"/>
<rect width="4.16667" height="4.16667" transform="translate(33.3335 8.33334)" fill="#F0DFC4"/>
<rect width="4.16667" height="4.16667" transform="translate(33.3335 12.5)" fill="#FBF3E4"/>
<rect width="4.16667" height="4.16667" transform="translate(33.3335 16.6667)" fill="#FBF3E4"/>
<rect width="4.16667" height="4.16667" transform="translate(33.3335 20.8333)" fill="#FBF3E4"/>
<rect width="4.16667" height="4.16667" transform="translate(33.3335 25)" fill="#FBF3E4"/>
<rect width="4.16667" height="4.16667" transform="translate(33.3335 29.1667)" fill="#FBF3E4"/>
<rect width="4.16667" height="4.16667" transform="translate(33.3335 33.3333)" fill="#FBF3E4"/>
<rect width="4.16667" height="4.16667" transform="translate(33.3335 37.5)" fill="#F0DFC4"/>
<rect width="4.16667" height="4.16666" transform="translate(33.3335 41.6667)" fill="#F0DFC4"/>
<rect width="4.16667" height="4.16667" transform="translate(33.3335 45.8333)" fill="#F0DFC4"/>
<rect width="4.16667" height="4.16667" transform="translate(33.3335 50)" fill="#D49725"/>
<rect width="4.16667" height="4.16666" transform="translate(33.3335 54.1667)" fill="#D49725"/>
<rect width="4.16667" height="4.16667" transform="translate(33.3335 58.3333)" fill="#D49725"/>
<rect width="4.16667" height="4.16666" transform="translate(33.3335 62.5)" fill="#D49725"/>
<rect width="4.16667" height="4.16667" transform="translate(33.3335 66.6667)" fill="#D49725"/>
<rect width="4.16667" height="4.16666" transform="translate(33.3335 70.8333)" fill="black"/>
<rect width="4.16667" height="4.16666" transform="translate(33.3335 75)" fill="black"/>
<rect width="4.16667" height="4.16667" transform="translate(33.3335 79.1667)" fill="black"/>
<rect width="4.16667" height="4.16666" transform="translate(33.3335 83.3333)" fill="black"/>
<rect width="4.16667" height="4.16666" transform="translate(33.3335 87.5)" fill="black"/>
<rect width="4.16667" height="4.16667" transform="translate(33.3335 91.6667)" fill="#FFE500"/>
<rect width="4.16667" height="4.16666" transform="translate(33.3335 95.8333)" fill="#FFE500"/>
<rect width="4.16667" height="4.16667" transform="translate(37.5)" fill="#FFE500"/>
<rect width="4.16667" height="4.16667" transform="translate(37.5 4.16666)" fill="#FFE500"/>
<rect width="4.16667" height="4.16667" transform="translate(37.5 8.33334)" fill="black"/>
<rect width="4.16667" height="4.16667" transform="translate(37.5 12.5)" fill="#F0DFC4"/>
<rect width="4.16667" height="4.16667" transform="translate(37.5 16.6667)" fill="#F0DFC4"/>
<rect width="4.16667" height="4.16667" transform="translate(37.5 20.8333)" fill="#F0DFC4"/>
<rect width="4.16667" height="4.16667" transform="translate(37.5 25)" fill="#F0DFC4"/>
<rect width="4.16667" height="4.16667" transform="translate(37.5 29.1667)" fill="#F0DFC4"/>
<rect width="4.16667" height="4.16667" transform="translate(37.5 33.3333)" fill="#F0DFC4"/>
<rect width="4.16667" height="4.16667" transform="translate(37.5 37.5)" fill="#FBF3E4"/>
<rect width="4.16667" height="4.16666" transform="translate(37.5 41.6667)" fill="#F0DFC4"/>
<rect width="4.16667" height="4.16667" transform="translate(37.5 45.8333)" fill="#F0DFC4"/>
<rect width="4.16667" height="4.16667" transform="translate(37.5 50)" fill="#D49725"/>
<rect width="4.16667" height="4.16666" transform="translate(37.5 54.1667)" fill="#D49725"/>
<rect width="4.16667" height="4.16667" transform="translate(37.5 58.3333)" fill="#D49725"/>
<rect width="4.16667" height="4.16666" transform="translate(37.5 62.5)" fill="#D49725"/>
<rect width="4.16667" height="4.16667" transform="translate(37.5 66.6667)" fill="#D49725"/>
<rect width="4.16667" height="4.16666" transform="translate(37.5 70.8333)" fill="#D49725"/>
<rect width="4.16667" height="4.16666" transform="translate(37.5 75)" fill="black"/>
<rect width="4.16667" height="4.16667" transform="translate(37.5 79.1667)" fill="#FFE500"/>
<rect width="4.16667" height="4.16666" transform="translate(37.5 83.3333)" fill="#FFE500"/>
<rect width="4.16667" height="4.16666" transform="translate(37.5 87.5)" fill="#FFE500"/>
<rect width="4.16667" height="4.16667" transform="translate(37.5 91.6667)" fill="#FFE500"/>
<rect width="4.16667" height="4.16666" transform="translate(37.5 95.8333)" fill="#FFE500"/>
<rect width="4.16666" height="4.16667" transform="translate(41.6665)" fill="#FFE500"/>
<rect width="4.16666" height="4.16667" transform="translate(41.6665 4.16666)" fill="#FFE500"/>
<rect width="4.16666" height="4.16667" transform="translate(41.6665 8.33334)" fill="#FFE500"/>
<rect width="4.16666" height="4.16667" transform="translate(41.6665 12.5)" fill="black"/>
<rect width="4.16666" height="4.16667" transform="translate(41.6665 16.6667)" fill="black"/>
<rect width="4.16666" height="4.16667" transform="translate(41.6665 20.8333)" fill="black"/>
<rect width="4.16666" height="4.16667" transform="translate(41.6665 25)" fill="black"/>
<rect width="4.16666" height="4.16667" transform="translate(41.6665 29.1667)" fill="black"/>
<rect width="4.16666" height="4.16667" transform="translate(41.6665 33.3333)" fill="black"/>
<rect width="4.16666" height="4.16667" transform="translate(41.6665 37.5)" fill="#C8A072"/>
<rect width="4.16666" height="4.16666" transform="translate(41.6665 41.6667)" fill="#F0DFC4"/>
<rect width="4.16666" height="4.16667" transform="translate(41.6665 45.8333)" fill="#F3AC2C"/>
<rect width="4.16666" height="4.16667" transform="translate(41.6665 50)" fill="#F3AC2C"/>
<rect width="4.16666" height="4.16666" transform="translate(41.6665 54.1667)" fill="#FEDF67"/>
<rect width="4.16666" height="4.16667" transform="translate(41.6665 58.3333)" fill="#FEDF67"/>
<rect width="4.16666" height="4.16666" transform="translate(41.6665 62.5)" fill="#FEDF67"/>
<rect width="4.16666" height="4.16667" transform="translate(41.6665 66.6667)" fill="#FEDF67"/>
<rect width="4.16666" height="4.16666" transform="translate(41.6665 70.8333)" fill="#D49725"/>
<rect width="4.16666" height="4.16666" transform="translate(41.6665 75)" fill="#D49725"/>
<rect width="4.16666" height="4.16667" transform="translate(41.6665 79.1667)" fill="black"/>
<rect width="4.16666" height="4.16666" transform="translate(41.6665 83.3333)" fill="#FFE500"/>
<rect width="4.16666" height="4.16666" transform="translate(41.6665 87.5)" fill="#FFE500"/>
<rect width="4.16666" height="4.16667" transform="translate(41.6665 91.6667)" fill="#FFE500"/>
<rect width="4.16666" height="4.16666" transform="translate(41.6665 95.8333)" fill="#FFE500"/>
<rect width="4.16667" height="4.16667" transform="translate(45.8335)" fill="#FFE500"/>
<rect width="4.16667" height="4.16667" transform="translate(45.8335 4.16666)" fill="#FFE500"/>
<rect width="4.16667" height="4.16667" transform="translate(45.8335 8.33334)" fill="#FFE500"/>
<rect width="4.16667" height="4.16667" transform="translate(45.8335 12.5)" fill="#FFE500"/>
<rect width="4.16667" height="4.16667" transform="translate(45.8335 16.6667)" fill="#FFE500"/>
<rect width="4.16667" height="4.16667" transform="translate(45.8335 20.8333)" fill="#FFE500"/>
<rect width="4.16667" height="4.16667" transform="translate(45.8335 25)" fill="#FFE500"/>
<rect width="4.16667" height="4.16667" transform="translate(45.8335 29.1667)" fill="#FFE500"/>
<rect width="4.16667" height="4.16667" transform="translate(45.8335 33.3333)" fill="#FFE500"/>
<rect width="4.16667" height="4.16667" transform="translate(45.8335 37.5)" fill="black"/>
<rect width="4.16667" height="4.16666" transform="translate(45.8335 41.6667)" fill="#F3AC2C"/>
<rect width="4.16667" height="4.16667" transform="translate(45.8335 45.8333)" fill="#F3AC2C"/>
<rect width="4.16667" height="4.16667" transform="translate(45.8335 50)" fill="#F3AC2C"/>
<rect width="4.16667" height="4.16666" transform="translate(45.8335 54.1667)" fill="#F3AC2C"/>
<rect width="4.16667" height="4.16667" transform="translate(45.8335 58.3333)" fill="#FEDF67"/>
<rect width="4.16667" height="4.16666" transform="translate(45.8335 62.5)" fill="#FEDF67"/>
<rect width="4.16667" height="4.16667" transform="translate(45.8335 66.6667)" fill="#FEDF67"/>
<rect width="4.16667" height="4.16666" transform="translate(45.8335 70.8333)" fill="#FEDF67"/>
<rect width="4.16667" height="4.16666" transform="translate(45.8335 75)" fill="#FEDF67"/>
<rect width="4.16667" height="4.16667" transform="translate(45.8335 79.1667)" fill="#FEDF67"/>
<rect width="4.16667" height="4.16666" transform="translate(45.8335 83.3333)" fill="black"/>
<rect width="4.16667" height="4.16666" transform="translate(45.8335 87.5)" fill="#FFE500"/>
<rect width="4.16667" height="4.16667" transform="translate(45.8335 91.6667)" fill="#FFE500"/>
<rect width="4.16667" height="4.16666" transform="translate(45.8335 95.8333)" fill="#FFE500"/>
<rect width="4.16667" height="4.16667" transform="translate(50)" fill="#FFE500"/>
<rect width="4.16667" height="4.16667" transform="translate(50 4.16666)" fill="#FFE500"/>
<rect width="4.16667" height="4.16667" transform="translate(50 8.33334)" fill="#FFE500"/>
<rect width="4.16667" height="4.16667" transform="translate(50 12.5)" fill="#FFE500"/>
<rect width="4.16667" height="4.16667" transform="translate(50 16.6667)" fill="#FFE500"/>
<rect width="4.16667" height="4.16667" transform="translate(50 20.8333)" fill="#FFE500"/>
<rect width="4.16667" height="4.16667" transform="translate(50 25)" fill="#FFE500"/>
<rect width="4.16667" height="4.16667" transform="translate(50 29.1667)" fill="#FFE500"/>
<rect width="4.16667" height="4.16667" transform="translate(50 33.3333)" fill="black"/>
<rect width="4.16667" height="4.16667" transform="translate(50 37.5)" fill="#FBF3E4"/>
<rect width="4.16667" height="4.16666" transform="translate(50 41.6667)" fill="black"/>
<rect width="4.16667" height="4.16667" transform="translate(50 45.8333)" fill="black"/>
<rect width="4.16667" height="4.16667" transform="translate(50 50)" fill="black"/>
<rect width="4.16667" height="4.16666" transform="translate(50 54.1667)" fill="#D49725"/>
<rect width="4.16667" height="4.16667" transform="translate(50 58.3333)" fill="#FEDF67"/>
<rect width="4.16667" height="4.16666" transform="translate(50 62.5)" fill="#FEDF67"/>
<rect width="4.16667" height="4.16667" transform="translate(50 66.6667)" fill="#FEDF67"/>
<rect width="4.16667" height="4.16666" transform="translate(50 70.8333)" fill="#FEDF67"/>
<rect width="4.16667" height="4.16666" transform="translate(50 75)" fill="#FEDF67"/>
<rect width="4.16667" height="4.16667" transform="translate(50 79.1667)" fill="#FEDF67"/>
<rect width="4.16667" height="4.16666" transform="translate(50 83.3333)" fill="black"/>
<rect width="4.16667" height="4.16666" transform="translate(50 87.5)" fill="#FFE500"/>
<rect width="4.16667" height="4.16667" transform="translate(50 91.6667)" fill="#FFE500"/>
<rect width="4.16667" height="4.16666" transform="translate(50 95.8333)" fill="#FFE500"/>
<rect width="4.16666" height="4.16667" transform="translate(54.1665)" fill="#FFE500"/>
<rect width="4.16666" height="4.16667" transform="translate(54.1665 4.16666)" fill="#FFE500"/>
<rect width="4.16666" height="4.16667" transform="translate(54.1665 8.33334)" fill="#FFE500"/>
<rect width="4.16666" height="4.16667" transform="translate(54.1665 12.5)" fill="#FFE500"/>
<rect width="4.16666" height="4.16667" transform="translate(54.1665 16.6667)" fill="#FFE500"/>
<rect width="4.16666" height="4.16667" transform="translate(54.1665 20.8333)" fill="#FFE500"/>
<rect width="4.16666" height="4.16667" transform="translate(54.1665 25)" fill="#FFE500"/>
<rect width="4.16666" height="4.16667" transform="translate(54.1665 29.1667)" fill="black"/>
<rect width="4.16666" height="4.16667" transform="translate(54.1665 33.3333)" fill="#FBF3E4"/>
<rect width="4.16666" height="4.16667" transform="translate(54.1665 37.5)" fill="#FBF3E4"/>
<rect width="4.16666" height="4.16666" transform="translate(54.1665 41.6667)" fill="black"/>
<rect width="4.16666" height="4.16667" transform="translate(54.1665 45.8333)" fill="#FFE500"/>
<rect width="4.16666" height="4.16667" transform="translate(54.1665 50)" fill="#FFE500"/>
<rect width="4.16666" height="4.16666" transform="translate(54.1665 54.1667)" fill="black"/>
<rect width="4.16666" height="4.16667" transform="translate(54.1665 58.3333)" fill="#D49725"/>
<rect width="4.16666" height="4.16666" transform="translate(54.1665 62.5)" fill="#FEDF67"/>
<rect width="4.16666" height="4.16667" transform="translate(54.1665 66.6667)" fill="#FEDF67"/>
<rect width="4.16666" height="4.16666" transform="translate(54.1665 70.8333)" fill="#FEDF67"/>
<rect width="4.16666" height="4.16666" transform="translate(54.1665 75)" fill="#FEDF67"/>
<rect width="4.16666" height="4.16667" transform="translate(54.1665 79.1667)" fill="#FEDF67"/>
<rect width="4.16666" height="4.16666" transform="translate(54.1665 83.3333)" fill="#FEDF67"/>
<rect width="4.16666" height="4.16666" transform="translate(54.1665 87.5)" fill="black"/>
<rect width="4.16666" height="4.16667" transform="translate(54.1665 91.6667)" fill="#FFE500"/>
<rect width="4.16666" height="4.16666" transform="translate(54.1665 95.8333)" fill="#FFE500"/>
<rect width="4.16667" height="4.16667" transform="translate(58.3335)" fill="#FFE500"/>
<rect width="4.16667" height="4.16667" transform="translate(58.3335 4.16666)" fill="#FFE500"/>
<rect width="4.16667" height="4.16667" transform="translate(58.3335 8.33334)" fill="#FFE500"/>
<rect width="4.16667" height="4.16667" transform="translate(58.3335 12.5)" fill="#FFE500"/>
<rect width="4.16667" height="4.16667" transform="translate(58.3335 16.6667)" fill="#FFE500"/>
<rect width="4.16667" height="4.16667" transform="translate(58.3335 20.8333)" fill="#FFE500"/>
<rect width="4.16667" height="4.16667" transform="translate(58.3335 25)" fill="#FFE500"/>
<rect width="4.16667" height="4.16667" transform="translate(58.3335 29.1667)" fill="black"/>
<rect width="4.16667" height="4.16667" transform="translate(58.3335 33.3333)" fill="#FBF3E4"/>
<rect width="4.16667" height="4.16667" transform="translate(58.3335 37.5)" fill="#FBF3E4"/>
<rect width="4.16667" height="4.16666" transform="translate(58.3335 41.6667)" fill="black"/>
<rect width="4.16667" height="4.16667" transform="translate(58.3335 45.8333)" fill="#FFE500"/>
<rect width="4.16667" height="4.16667" transform="translate(58.3335 50)" fill="#FFE500"/>
<rect width="4.16667" height="4.16666" transform="translate(58.3335 54.1667)" fill="#FFE500"/>
<rect width="4.16667" height="4.16667" transform="translate(58.3335 58.3333)" fill="black"/>
<rect width="4.16667" height="4.16666" transform="translate(58.3335 62.5)" fill="#D49725"/>
<rect width="4.16667" height="4.16667" transform="translate(58.3335 66.6667)" fill="#FEDF67"/>
<rect width="4.16667" height="4.16666" transform="translate(58.3335 70.8333)" fill="#FEDF67"/>
<rect width="4.16667" height="4.16666" transform="translate(58.3335 75)" fill="#FEDF67"/>
<rect width="4.16667" height="4.16667" transform="translate(58.3335 79.1667)" fill="#FEDF67"/>
<rect width="4.16667" height="4.16666" transform="translate(58.3335 83.3333)" fill="#FEDF67"/>
<rect width="4.16667" height="4.16666" transform="translate(58.3335 87.5)" fill="black"/>
<rect width="4.16667" height="4.16667" transform="translate(58.3335 91.6667)" fill="#FFE500"/>
<rect width="4.16667" height="4.16666" transform="translate(58.3335 95.8333)" fill="#FFE500"/>
<rect width="4.16666" height="4.16667" transform="translate(62.5)" fill="#FFE500"/>
<rect width="4.16666" height="4.16667" transform="translate(62.5 4.16666)" fill="#FFE500"/>
<rect width="4.16666" height="4.16667" transform="translate(62.5 8.33334)" fill="#FFE500"/>
<rect width="4.16666" height="4.16667" transform="translate(62.5 12.5)" fill="#FFE500"/>
<rect width="4.16666" height="4.16667" transform="translate(62.5 16.6667)" fill="#FFE500"/>
<rect width="4.16666" height="4.16667" transform="translate(62.5 20.8333)" fill="#FFE500"/>
<rect width="4.16666" height="4.16667" transform="translate(62.5 25)" fill="#FFE500"/>
<rect width="4.16666" height="4.16667" transform="translate(62.5 29.1667)" fill="#FFE500"/>
<rect width="4.16666" height="4.16667" transform="translate(62.5 33.3333)" fill="black"/>
<rect width="4.16666" height="4.16667" transform="translate(62.5 37.5)" fill="#FBF3E4"/>
<rect width="4.16666" height="4.16666" transform="translate(62.5 41.6667)" fill="#F0DFC4"/>
<rect width="4.16666" height="4.16667" transform="translate(62.5 45.8333)" fill="black"/>
<rect width="4.16666" height="4.16667" transform="translate(62.5 50)" fill="#FFE500"/>
<rect width="4.16666" height="4.16666" transform="translate(62.5 54.1667)" fill="#FFE500"/>
<rect width="4.16666" height="4.16667" transform="translate(62.5 58.3333)" fill="#FFE500"/>
<rect width="4.16666" height="4.16666" transform="translate(62.5 62.5)" fill="black"/>
<rect width="4.16666" height="4.16667" transform="translate(62.5 66.6667)" fill="#FEDF67"/>
<rect width="4.16666" height="4.16666" transform="translate(62.5 70.8333)" fill="#FEDF67"/>
<rect width="4.16666" height="4.16666" transform="translate(62.5 75)" fill="#FEDF67"/>
<rect width="4.16666" height="4.16667" transform="translate(62.5 79.1667)" fill="#FEDF67"/>
<rect width="4.16666" height="4.16666" transform="translate(62.5 83.3333)" fill="#FEDF67"/>
<rect width="4.16666" height="4.16666" transform="translate(62.5 87.5)" fill="black"/>
<rect width="4.16666" height="4.16667" transform="translate(62.5 91.6667)" fill="#FFE500"/>
<rect width="4.16666" height="4.16666" transform="translate(62.5 95.8333)" fill="#FFE500"/>
<rect width="4.16667" height="4.16667" transform="translate(66.6665)" fill="#FFE500"/>
<rect width="4.16667" height="4.16667" transform="translate(66.6665 4.16666)" fill="#FFE500"/>
<rect width="4.16667" height="4.16667" transform="translate(66.6665 8.33334)" fill="#FFE500"/>
<rect width="4.16667" height="4.16667" transform="translate(66.6665 12.5)" fill="#FFE500"/>
<rect width="4.16667" height="4.16667" transform="translate(66.6665 16.6667)" fill="#FFE500"/>
<rect width="4.16667" height="4.16667" transform="translate(66.6665 20.8333)" fill="#FFE500"/>
<rect width="4.16667" height="4.16667" transform="translate(66.6665 25)" fill="#FFE500"/>
<rect width="4.16667" height="4.16667" transform="translate(66.6665 29.1667)" fill="#FFE500"/>
<rect width="4.16667" height="4.16667" transform="translate(66.6665 33.3333)" fill="black"/>
<rect width="4.16667" height="4.16667" transform="translate(66.6665 37.5)" fill="#F0DFC4"/>
<rect width="4.16667" height="4.16666" transform="translate(66.6665 41.6667)" fill="#F0DFC4"/>
<rect width="4.16667" height="4.16667" transform="translate(66.6665 45.8333)" fill="#F0DFC4"/>
<rect width="4.16667" height="4.16667" transform="translate(66.6665 50)" fill="black"/>
<rect width="4.16667" height="4.16666" transform="translate(66.6665 54.1667)" fill="#FFE500"/>
<rect width="4.16667" height="4.16667" transform="translate(66.6665 58.3333)" fill="#FFE500"/>
<rect width="4.16667" height="4.16666" transform="translate(66.6665 62.5)" fill="#FFE500"/>
<rect width="4.16667" height="4.16667" transform="translate(66.6665 66.6667)" fill="black"/>
<rect width="4.16667" height="4.16666" transform="translate(66.6665 70.8333)" fill="#FEDF67"/>
<rect width="4.16667" height="4.16666" transform="translate(66.6665 75)" fill="#FEDF67"/>
<rect width="4.16667" height="4.16667" transform="translate(66.6665 79.1667)" fill="#FEDF67"/>
<rect width="4.16667" height="4.16666" transform="translate(66.6665 83.3333)" fill="#FEDF67"/>
<rect width="4.16667" height="4.16666" transform="translate(66.6665 87.5)" fill="black"/>
<rect width="4.16667" height="4.16667" transform="translate(66.6665 91.6667)" fill="#FFE500"/>
<rect width="4.16667" height="4.16666" transform="translate(66.6665 95.8333)" fill="#FFE500"/>
<rect width="4.16666" height="4.16667" transform="translate(70.8335)" fill="#FFE500"/>
<rect width="4.16666" height="4.16667" transform="translate(70.8335 4.16666)" fill="#FFE500"/>
<rect width="4.16666" height="4.16667" transform="translate(70.8335 8.33334)" fill="#FFE500"/>
<rect width="4.16666" height="4.16667" transform="translate(70.8335 12.5)" fill="#FFE500"/>
<rect width="4.16666" height="4.16667" transform="translate(70.8335 16.6667)" fill="#FFE500"/>
<rect width="4.16666" height="4.16667" transform="translate(70.8335 20.8333)" fill="#FFE500"/>
<rect width="4.16666" height="4.16667" transform="translate(70.8335 25)" fill="#FFE500"/>
<rect width="4.16666" height="4.16667" transform="translate(70.8335 29.1667)" fill="#FFE500"/>
<rect width="4.16666" height="4.16667" transform="translate(70.8335 33.3333)" fill="#FFE500"/>
<rect width="4.16666" height="4.16667" transform="translate(70.8335 37.5)" fill="black"/>
<rect width="4.16666" height="4.16666" transform="translate(70.8335 41.6667)" fill="#F0DFC4"/>
<rect width="4.16666" height="4.16667" transform="translate(70.8335 45.8333)" fill="#F0DFC4"/>
<rect width="4.16666" height="4.16667" transform="translate(70.8335 50)" fill="#F0DFC4"/>
<rect width="4.16666" height="4.16666" transform="translate(70.8335 54.1667)" fill="black"/>
<rect width="4.16666" height="4.16667" transform="translate(70.8335 58.3333)" fill="#FFE500"/>
<rect width="4.16666" height="4.16666" transform="translate(70.8335 62.5)" fill="#FFE500"/>
<rect width="4.16666" height="4.16667" transform="translate(70.8335 66.6667)" fill="black"/>
<rect width="4.16666" height="4.16666" transform="translate(70.8335 70.8333)" fill="#FEDF67"/>
<rect width="4.16666" height="4.16666" transform="translate(70.8335 75)" fill="#FEDF67"/>
<rect width="4.16666" height="4.16667" transform="translate(70.8335 79.1667)" fill="#FEDF67"/>
<rect width="4.16666" height="4.16666" transform="translate(70.8335 83.3333)" fill="#FEDF67"/>
<rect width="4.16666" height="4.16666" transform="translate(70.8335 87.5)" fill="black"/>
<rect width="4.16666" height="4.16667" transform="translate(70.8335 91.6667)" fill="#FFE500"/>
<rect width="4.16666" height="4.16666" transform="translate(70.8335 95.8333)" fill="#FFE500"/>
<rect width="4.16666" height="4.16667" transform="translate(75)" fill="#FFE500"/>
<rect width="4.16666" height="4.16667" transform="translate(75 4.16666)" fill="#FFE500"/>
<rect width="4.16666" height="4.16667" transform="translate(75 8.33334)" fill="#FFE500"/>
<rect width="4.16666" height="4.16667" transform="translate(75 12.5)" fill="#FFE500"/>
<rect width="4.16666" height="4.16667" transform="translate(75 16.6667)" fill="#FFE500"/>
<rect width="4.16666" height="4.16667" transform="translate(75 20.8333)" fill="#FFE500"/>
<rect width="4.16666" height="4.16667" transform="translate(75 25)" fill="#FFE500"/>
<rect width="4.16666" height="4.16667" transform="translate(75 29.1667)" fill="#FFE500"/>
<rect width="4.16666" height="4.16667" transform="translate(75 33.3333)" fill="#FFE500"/>
<rect width="4.16666" height="4.16667" transform="translate(75 37.5)" fill="#FFE500"/>
<rect width="4.16666" height="4.16666" transform="translate(75 41.6667)" fill="black"/>
<rect width="4.16666" height="4.16667" transform="translate(75 45.8333)" fill="#F0DFC4"/>
<rect width="4.16666" height="4.16667" transform="translate(75 50)" fill="#C8A072"/>
<rect width="4.16666" height="4.16666" transform="translate(75 54.1667)" fill="#C8A072"/>
<rect width="4.16666" height="4.16667" transform="translate(75 58.3333)" fill="black"/>
<rect width="4.16666" height="4.16666" transform="translate(75 62.5)" fill="#FFE500"/>
<rect width="4.16666" height="4.16667" transform="translate(75 66.6667)" fill="black"/>
<rect width="4.16666" height="4.16666" transform="translate(75 70.8333)" fill="#D49725"/>
<rect width="4.16666" height="4.16666" transform="translate(75 75)" fill="#FEDF67"/>
<rect width="4.16666" height="4.16667" transform="translate(75 79.1667)" fill="#FEDF67"/>
<rect width="4.16666" height="4.16666" transform="translate(75 83.3333)" fill="black"/>
<rect width="4.16666" height="4.16666" transform="translate(75 87.5)" fill="#FFE500"/>
<rect width="4.16666" height="4.16667" transform="translate(75 91.6667)" fill="#FFE500"/>
<rect width="4.16666" height="4.16666" transform="translate(75 95.8333)" fill="#FFE500"/>
<rect width="4.16667" height="4.16667" transform="translate(79.1665)" fill="#FFE500"/>
<rect width="4.16667" height="4.16667" transform="translate(79.1665 4.16666)" fill="#FFE500"/>
<rect width="4.16667" height="4.16667" transform="translate(79.1665 8.33334)" fill="#FFE500"/>
<rect width="4.16667" height="4.16667" transform="translate(79.1665 12.5)" fill="#FFE500"/>
<rect width="4.16667" height="4.16667" transform="translate(79.1665 16.6667)" fill="#FFE500"/>
<rect width="4.16667" height="4.16667" transform="translate(79.1665 20.8333)" fill="#FFE500"/>
<rect width="4.16667" height="4.16667" transform="translate(79.1665 25)" fill="#FFE500"/>
<rect width="4.16667" height="4.16667" transform="translate(79.1665 29.1667)" fill="#FFE500"/>
<rect width="4.16667" height="4.16667" transform="translate(79.1665 33.3333)" fill="#FFE500"/>
<rect width="4.16667" height="4.16667" transform="translate(79.1665 37.5)" fill="#FFE500"/>
<rect width="4.16667" height="4.16666" transform="translate(79.1665 41.6667)" fill="#FFE500"/>
<rect width="4.16667" height="4.16667" transform="translate(79.1665 45.8333)" fill="black"/>
<rect width="4.16667" height="4.16667" transform="translate(79.1665 50)" fill="black"/>
<rect width="4.16667" height="4.16666" transform="translate(79.1665 54.1667)" fill="#C8A072"/>
<rect width="4.16667" height="4.16667" transform="translate(79.1665 58.3333)" fill="#C8A072"/>
<rect width="4.16667" height="4.16666" transform="translate(79.1665 62.5)" fill="black"/>
<rect width="4.16667" height="4.16667" transform="translate(79.1665 66.6667)" fill="#FFE500"/>
<rect width="4.16667" height="4.16666" transform="translate(79.1665 70.8333)" fill="black"/>
<rect width="4.16667" height="4.16666" transform="translate(79.1665 75)" fill="#FEDF67"/>
<rect width="4.16667" height="4.16667" transform="translate(79.1665 79.1667)" fill="#D49725"/>
<rect width="4.16667" height="4.16666" transform="translate(79.1665 83.3333)" fill="black"/>
<rect width="4.16667" height="4.16666" transform="translate(79.1665 87.5)" fill="#FFE500"/>
<rect width="4.16667" height="4.16667" transform="translate(79.1665 91.6667)" fill="#FFE500"/>
<rect width="4.16667" height="4.16666" transform="translate(79.1665 95.8333)" fill="#FFE500"/>
<rect width="4.16666" height="4.16667" transform="translate(83.3335)" fill="#FFE500"/>
<rect width="4.16666" height="4.16667" transform="translate(83.3335 4.16666)" fill="#FFE500"/>
<rect width="4.16666" height="4.16667" transform="translate(83.3335 8.33334)" fill="#FFE500"/>
<rect width="4.16666" height="4.16667" transform="translate(83.3335 12.5)" fill="#FFE500"/>
<rect width="4.16666" height="4.16667" transform="translate(83.3335 16.6667)" fill="#FFE500"/>
<rect width="4.16666" height="4.16667" transform="translate(83.3335 20.8333)" fill="#FFE500"/>
<rect width="4.16666" height="4.16667" transform="translate(83.3335 25)" fill="#FFE500"/>
<rect width="4.16666" height="4.16667" transform="translate(83.3335 29.1667)" fill="#FFE500"/>
<rect width="4.16666" height="4.16667" transform="translate(83.3335 33.3333)" fill="#FFE500"/>
<rect width="4.16666" height="4.16667" transform="translate(83.3335 37.5)" fill="#FFE500"/>
<rect width="4.16666" height="4.16666" transform="translate(83.3335 41.6667)" fill="#FFE500"/>
<rect width="4.16666" height="4.16667" transform="translate(83.3335 45.8333)" fill="#FFE500"/>
<rect width="4.16666" height="4.16667" transform="translate(83.3335 50)" fill="#FFE500"/>
<rect width="4.16666" height="4.16666" transform="translate(83.3335 54.1667)" fill="black"/>
<rect width="4.16666" height="4.16667" transform="translate(83.3335 58.3333)" fill="black"/>
<rect width="4.16666" height="4.16666" transform="translate(83.3335 62.5)" fill="#FFE500"/>
<rect width="4.16666" height="4.16667" transform="translate(83.3335 66.6667)" fill="#FFE500"/>
<rect width="4.16666" height="4.16666" transform="translate(83.3335 70.8333)" fill="black"/>
<rect width="4.16666" height="4.16666" transform="translate(83.3335 75)" fill="#D49725"/>
<rect width="4.16666" height="4.16667" transform="translate(83.3335 79.1667)" fill="black"/>
<rect width="4.16666" height="4.16666" transform="translate(83.3335 83.3333)" fill="#FFE500"/>
<rect width="4.16666" height="4.16666" transform="translate(83.3335 87.5)" fill="#FFE500"/>
<rect width="4.16666" height="4.16667" transform="translate(83.3335 91.6667)" fill="#FFE500"/>
<rect width="4.16666" height="4.16666" transform="translate(83.3335 95.8333)" fill="#FFE500"/>
<rect width="4.16666" height="4.16667" transform="translate(87.5)" fill="#FFE500"/>
<rect width="4.16666" height="4.16667" transform="translate(87.5 4.16666)" fill="#FFE500"/>
<rect width="4.16666" height="4.16667" transform="translate(87.5 8.33334)" fill="#FFE500"/>
<rect width="4.16666" height="4.16667" transform="translate(87.5 12.5)" fill="#FFE500"/>
<rect width="4.16666" height="4.16667" transform="translate(87.5 16.6667)" fill="#FFE500"/>
<rect width="4.16666" height="4.16667" transform="translate(87.5 20.8333)" fill="#FFE500"/>
<rect width="4.16666" height="4.16667" transform="translate(87.5 25)" fill="#FFE500"/>
<rect width="4.16666" height="4.16667" transform="translate(87.5 29.1667)" fill="#FFE500"/>
<rect width="4.16666" height="4.16667" transform="translate(87.5 33.3333)" fill="#FFE500"/>
<rect width="4.16666" height="4.16667" transform="translate(87.5 37.5)" fill="#FFE500"/>
<rect width="4.16666" height="4.16666" transform="translate(87.5 41.6667)" fill="#FFE500"/>
<rect width="4.16666" height="4.16667" transform="translate(87.5 45.8333)" fill="#FFE500"/>
<rect width="4.16666" height="4.16667" transform="translate(87.5 50)" fill="#FFE500"/>
<rect width="4.16666" height="4.16666" transform="translate(87.5 54.1667)" fill="#FFE500"/>
<rect width="4.16666" height="4.16667" transform="translate(87.5 58.3333)" fill="#FFE500"/>
<rect width="4.16666" height="4.16666" transform="translate(87.5 62.5)" fill="#FFE500"/>
<rect width="4.16666" height="4.16667" transform="translate(87.5 66.6667)" fill="#FFE500"/>
<rect width="4.16666" height="4.16666" transform="translate(87.5 70.8333)" fill="#FFE500"/>
<rect width="4.16666" height="4.16666" transform="translate(87.5 75)" fill="black"/>
<rect width="4.16666" height="4.16667" transform="translate(87.5 79.1667)" fill="#FFE500"/>
<rect width="4.16666" height="4.16666" transform="translate(87.5 83.3333)" fill="#FFE500"/>
<rect width="4.16666" height="4.16666" transform="translate(87.5 87.5)" fill="#FFE500"/>
<rect width="4.16666" height="4.16667" transform="translate(87.5 91.6667)" fill="#FFE500"/>
<rect width="4.16666" height="4.16666" transform="translate(87.5 95.8333)" fill="#FFE500"/>
<rect width="4.16667" height="4.16667" transform="translate(91.6665)" fill="#FFE500"/>
<rect width="4.16667" height="4.16667" transform="translate(91.6665 4.16666)" fill="#FFE500"/>
<rect width="4.16667" height="4.16667" transform="translate(91.6665 8.33334)" fill="#FFE500"/>
<rect width="4.16667" height="4.16667" transform="translate(91.6665 12.5)" fill="#FFE500"/>
<rect width="4.16667" height="4.16667" transform="translate(91.6665 16.6667)" fill="#FFE500"/>
<rect width="4.16667" height="4.16667" transform="translate(91.6665 20.8333)" fill="#FFE500"/>
<rect width="4.16667" height="4.16667" transform="translate(91.6665 25)" fill="#FFE500"/>
<rect width="4.16667" height="4.16667" transform="translate(91.6665 29.1667)" fill="#FFE500"/>
<rect width="4.16667" height="4.16667" transform="translate(91.6665 33.3333)" fill="#FFE500"/>
<rect width="4.16667" height="4.16667" transform="translate(91.6665 37.5)" fill="#FFE500"/>
<rect width="4.16667" height="4.16666" transform="translate(91.6665 41.6667)" fill="#FFE500"/>
<rect width="4.16667" height="4.16667" transform="translate(91.6665 45.8333)" fill="#FFE500"/>
<rect width="4.16667" height="4.16667" transform="translate(91.6665 50)" fill="#FFE500"/>
<rect width="4.16667" height="4.16666" transform="translate(91.6665 54.1667)" fill="#FFE500"/>
<rect width="4.16667" height="4.16667" transform="translate(91.6665 58.3333)" fill="#FFE500"/>
<rect width="4.16667" height="4.16666" transform="translate(91.6665 62.5)" fill="#FFE500"/>
<rect width="4.16667" height="4.16667" transform="translate(91.6665 66.6667)" fill="#FFE500"/>
<rect width="4.16667" height="4.16666" transform="translate(91.6665 70.8333)" fill="#FFE500"/>
<rect width="4.16667" height="4.16666" transform="translate(91.6665 75)" fill="#FFE500"/>
<rect width="4.16667" height="4.16667" transform="translate(91.6665 79.1667)" fill="#FFE500"/>
<rect width="4.16667" height="4.16666" transform="translate(91.6665 83.3333)" fill="#FFE500"/>
<rect width="4.16667" height="4.16666" transform="translate(91.6665 87.5)" fill="#FFE500"/>
<rect width="4.16667" height="4.16667" transform="translate(91.6665 91.6667)" fill="#FFE500"/>
<rect width="4.16667" height="4.16666" transform="translate(91.6665 95.8333)" fill="#FFE500"/>
<rect width="4.16666" height="4.16667" transform="translate(95.8335)" fill="#FFE500"/>
<rect width="4.16666" height="4.16667" transform="translate(95.8335 4.16666)" fill="#FFE500"/>
<rect width="4.16666" height="4.16667" transform="translate(95.8335 8.33334)" fill="#FFE500"/>
<rect width="4.16666" height="4.16667" transform="translate(95.8335 12.5)" fill="#FFE500"/>
<rect width="4.16666" height="4.16667" transform="translate(95.8335 16.6667)" fill="#FFE500"/>
<rect width="4.16666" height="4.16667" transform="translate(95.8335 20.8333)" fill="#FFE500"/>
<rect width="4.16666" height="4.16667" transform="translate(95.8335 25)" fill="#FFE500"/>
<rect width="4.16666" height="4.16667" transform="translate(95.8335 29.1667)" fill="#FFE500"/>
<rect width="4.16666" height="4.16667" transform="translate(95.8335 33.3333)" fill="#FFE500"/>
<rect width="4.16666" height="4.16667" transform="translate(95.8335 37.5)" fill="#FFE500"/>
<rect width="4.16666" height="4.16666" transform="translate(95.8335 41.6667)" fill="#FFE500"/>
<rect width="4.16666" height="4.16667" transform="translate(95.8335 45.8333)" fill="#FFE500"/>
<rect width="4.16666" height="4.16667" transform="translate(95.8335 50)" fill="#FFE500"/>
<rect width="4.16666" height="4.16666" transform="translate(95.8335 54.1667)" fill="#FFE500"/>
<rect width="4.16666" height="4.16667" transform="translate(95.8335 58.3333)" fill="#FFE500"/>
<rect width="4.16666" height="4.16666" transform="translate(95.8335 62.5)" fill="#FFE500"/>
<rect width="4.16666" height="4.16667" transform="translate(95.8335 66.6667)" fill="#FFE500"/>
<rect width="4.16666" height="4.16666" transform="translate(95.8335 70.8333)" fill="#FFE500"/>
<rect width="4.16666" height="4.16666" transform="translate(95.8335 75)" fill="#FFE500"/>
<rect width="4.16666" height="4.16667" transform="translate(95.8335 79.1667)" fill="#FFE500"/>
<rect width="4.16666" height="4.16666" transform="translate(95.8335 83.3333)" fill="#FFE500"/>
<rect width="4.16666" height="4.16666" transform="translate(95.8335 87.5)" fill="#FFE500"/>
<rect width="4.16666" height="4.16667" transform="translate(95.8335 91.6667)" fill="#FFE500"/>
<rect width="4.16666" height="4.16666" transform="translate(95.8335 95.8333)" fill="#FFE500"/>
</g>
<defs>
<clipPath id="clip0_34_55048">
<rect width="100" height="100" fill="white"/>
</clipPath>
</defs>
</svg>
