<svg width="95" height="95" viewBox="0 0 95 95" fill="none" xmlns="http://www.w3.org/2000/svg">
<g clip-path="url(#clip0_34_55074)">
<rect width="3.95833" height="3.95833" fill="#FFE500"/>
<rect width="3.95833" height="3.95833" transform="translate(0 3.95833)" fill="#FFE500"/>
<rect width="3.95833" height="3.95833" transform="translate(0 7.91667)" fill="#FFE500"/>
<rect width="3.95833" height="3.95833" transform="translate(0 11.875)" fill="#FFE500"/>
<rect width="3.95833" height="3.95833" transform="translate(0 15.8333)" fill="#FFE500"/>
<rect width="3.95833" height="3.95833" transform="translate(0 19.7917)" fill="#FFE500"/>
<rect width="3.95833" height="3.95833" transform="translate(0 23.75)" fill="#FFE500"/>
<rect width="3.95833" height="3.95833" transform="translate(0 27.7083)" fill="#FFE500"/>
<rect width="3.95833" height="3.95833" transform="translate(0 31.6667)" fill="black"/>
<rect width="3.95833" height="3.95833" transform="translate(0 35.625)" fill="black"/>
<rect width="3.95833" height="3.95834" transform="translate(0 39.5833)" fill="black"/>
<rect width="3.95833" height="3.95833" transform="translate(0 43.5417)" fill="black"/>
<rect width="3.95833" height="3.95833" transform="translate(0 47.5)" fill="black"/>
<rect width="3.95833" height="3.95834" transform="translate(0 51.4583)" fill="#FFE500"/>
<rect width="3.95833" height="3.95833" transform="translate(0 55.4167)" fill="#FFE500"/>
<rect width="3.95833" height="3.95833" transform="translate(0 59.375)" fill="#FFE500"/>
<rect width="3.95833" height="3.95833" transform="translate(0 63.3333)" fill="#FFE500"/>
<rect width="3.95833" height="3.95834" transform="translate(0 67.2917)" fill="#FFE500"/>
<rect width="3.95833" height="3.95834" transform="translate(0 71.25)" fill="#FFE500"/>
<rect width="3.95833" height="3.95833" transform="translate(0 75.2083)" fill="#FFE500"/>
<rect width="3.95833" height="3.95834" transform="translate(0 79.1667)" fill="#FFE500"/>
<rect width="3.95833" height="3.95834" transform="translate(0 83.125)" fill="#FFE500"/>
<rect width="3.95833" height="3.95833" transform="translate(0 87.0833)" fill="#FFE500"/>
<rect width="3.95833" height="3.95834" transform="translate(0 91.0417)" fill="#FFE500"/>
<rect width="3.95833" height="3.95833" transform="translate(3.9585)" fill="#FFE500"/>
<rect width="3.95833" height="3.95833" transform="translate(3.9585 3.95833)" fill="#FFE500"/>
<rect width="3.95833" height="3.95833" transform="translate(3.9585 7.91667)" fill="#FFE500"/>
<rect width="3.95833" height="3.95833" transform="translate(3.9585 11.875)" fill="#FFE500"/>
<rect width="3.95833" height="3.95833" transform="translate(3.9585 15.8333)" fill="#FFE500"/>
<rect width="3.95833" height="3.95833" transform="translate(3.9585 19.7917)" fill="#FFE500"/>
<rect width="3.95833" height="3.95833" transform="translate(3.9585 23.75)" fill="black"/>
<rect width="3.95833" height="3.95833" transform="translate(3.9585 27.7083)" fill="black"/>
<rect width="3.95833" height="3.95833" transform="translate(3.9585 31.6667)" fill="#B4D69C"/>
<rect width="3.95833" height="3.95833" transform="translate(3.9585 35.625)" fill="#557B2F"/>
<rect width="3.95833" height="3.95834" transform="translate(3.9585 39.5833)" fill="#557B2F"/>
<rect width="3.95833" height="3.95833" transform="translate(3.9585 43.5417)" fill="#557B2F"/>
<rect width="3.95833" height="3.95833" transform="translate(3.9585 47.5)" fill="#557B2F"/>
<rect width="3.95833" height="3.95834" transform="translate(3.9585 51.4583)" fill="black"/>
<rect width="3.95833" height="3.95833" transform="translate(3.9585 55.4167)" fill="black"/>
<rect width="3.95833" height="3.95833" transform="translate(3.9585 59.375)" fill="black"/>
<rect width="3.95833" height="3.95833" transform="translate(3.9585 63.3333)" fill="#FFE500"/>
<rect width="3.95833" height="3.95834" transform="translate(3.9585 67.2917)" fill="#FFE500"/>
<rect width="3.95833" height="3.95834" transform="translate(3.9585 71.25)" fill="#FFE500"/>
<rect width="3.95833" height="3.95833" transform="translate(3.9585 75.2083)" fill="#FFE500"/>
<rect width="3.95833" height="3.95834" transform="translate(3.9585 79.1667)" fill="#FFE500"/>
<rect width="3.95833" height="3.95834" transform="translate(3.9585 83.125)" fill="#FFE500"/>
<rect width="3.95833" height="3.95833" transform="translate(3.9585 87.0833)" fill="#FFE500"/>
<rect width="3.95833" height="3.95834" transform="translate(3.9585 91.0417)" fill="#FFE500"/>
<rect width="3.95833" height="3.95833" transform="translate(7.9165)" fill="#FFE500"/>
<rect width="3.95833" height="3.95833" transform="translate(7.9165 3.95833)" fill="#FFE500"/>
<rect width="3.95833" height="3.95833" transform="translate(7.9165 7.91667)" fill="#FFE500"/>
<rect width="3.95833" height="3.95833" transform="translate(7.9165 11.875)" fill="#FFE500"/>
<rect width="3.95833" height="3.95833" transform="translate(7.9165 15.8333)" fill="#FFE500"/>
<rect width="3.95833" height="3.95833" transform="translate(7.9165 19.7917)" fill="black"/>
<rect width="3.95833" height="3.95833" transform="translate(7.9165 23.75)" fill="#B4D69C"/>
<rect width="3.95833" height="3.95833" transform="translate(7.9165 27.7083)" fill="#557B2F"/>
<rect width="3.95833" height="3.95833" transform="translate(7.9165 31.6667)" fill="#557B2F"/>
<rect width="3.95833" height="3.95833" transform="translate(7.9165 35.625)" fill="#557B2F"/>
<rect width="3.95833" height="3.95834" transform="translate(7.9165 39.5833)" fill="#557B2F"/>
<rect width="3.95833" height="3.95833" transform="translate(7.9165 43.5417)" fill="#557B2F"/>
<rect width="3.95833" height="3.95833" transform="translate(7.9165 47.5)" fill="#557B2F"/>
<rect width="3.95833" height="3.95834" transform="translate(7.9165 51.4583)" fill="#385713"/>
<rect width="3.95833" height="3.95833" transform="translate(7.9165 55.4167)" fill="#385713"/>
<rect width="3.95833" height="3.95833" transform="translate(7.9165 59.375)" fill="#385713"/>
<rect width="3.95833" height="3.95833" transform="translate(7.9165 63.3333)" fill="black"/>
<rect width="3.95833" height="3.95834" transform="translate(7.9165 67.2917)" fill="#FFE500"/>
<rect width="3.95833" height="3.95834" transform="translate(7.9165 71.25)" fill="#FFE500"/>
<rect width="3.95833" height="3.95833" transform="translate(7.9165 75.2083)" fill="#FFE500"/>
<rect width="3.95833" height="3.95834" transform="translate(7.9165 79.1667)" fill="#FFE500"/>
<rect width="3.95833" height="3.95834" transform="translate(7.9165 83.125)" fill="#FFE500"/>
<rect width="3.95833" height="3.95833" transform="translate(7.9165 87.0833)" fill="#FFE500"/>
<rect width="3.95833" height="3.95834" transform="translate(7.9165 91.0417)" fill="#FFE500"/>
<rect width="3.95833" height="3.95833" transform="translate(11.875)" fill="#FFE500"/>
<rect width="3.95833" height="3.95833" transform="translate(11.875 3.95833)" fill="#FFE500"/>
<rect width="3.95833" height="3.95833" transform="translate(11.875 7.91667)" fill="#FFE500"/>
<rect width="3.95833" height="3.95833" transform="translate(11.875 11.875)" fill="#FFE500"/>
<rect width="3.95833" height="3.95833" transform="translate(11.875 15.8333)" fill="black"/>
<rect width="3.95833" height="3.95833" transform="translate(11.875 19.7917)" fill="#557B2F"/>
<rect width="3.95833" height="3.95833" transform="translate(11.875 23.75)" fill="#557B2F"/>
<rect width="3.95833" height="3.95833" transform="translate(11.875 27.7083)" fill="#557B2F"/>
<rect width="3.95833" height="3.95833" transform="translate(11.875 31.6667)" fill="#557B2F"/>
<rect width="3.95833" height="3.95833" transform="translate(11.875 35.625)" fill="#557B2F"/>
<rect width="3.95833" height="3.95834" transform="translate(11.875 39.5833)" fill="#B4D69C"/>
<rect width="3.95833" height="3.95833" transform="translate(11.875 43.5417)" fill="#B4D69C"/>
<rect width="3.95833" height="3.95833" transform="translate(11.875 47.5)" fill="#557B2F"/>
<rect width="3.95833" height="3.95834" transform="translate(11.875 51.4583)" fill="#557B2F"/>
<rect width="3.95833" height="3.95833" transform="translate(11.875 55.4167)" fill="#557B2F"/>
<rect width="3.95833" height="3.95833" transform="translate(11.875 59.375)" fill="black"/>
<rect width="3.95833" height="3.95833" transform="translate(11.875 63.3333)" fill="#FFE500"/>
<rect width="3.95833" height="3.95834" transform="translate(11.875 67.2917)" fill="#FFE500"/>
<rect width="3.95833" height="3.95834" transform="translate(11.875 71.25)" fill="#FFE500"/>
<rect width="3.95833" height="3.95833" transform="translate(11.875 75.2083)" fill="#FFE500"/>
<rect width="3.95833" height="3.95834" transform="translate(11.875 79.1667)" fill="#FFE500"/>
<rect width="3.95833" height="3.95834" transform="translate(11.875 83.125)" fill="#FFE500"/>
<rect width="3.95833" height="3.95833" transform="translate(11.875 87.0833)" fill="#FFE500"/>
<rect width="3.95833" height="3.95834" transform="translate(11.875 91.0417)" fill="#FFE500"/>
<rect width="3.95833" height="3.95833" transform="translate(15.8335)" fill="#FFE500"/>
<rect width="3.95833" height="3.95833" transform="translate(15.8335 3.95833)" fill="#FFE500"/>
<rect width="3.95833" height="3.95833" transform="translate(15.8335 7.91667)" fill="black"/>
<rect width="3.95833" height="3.95833" transform="translate(15.8335 11.875)" fill="#FFE500"/>
<rect width="3.95833" height="3.95833" transform="translate(15.8335 15.8333)" fill="black"/>
<rect width="3.95833" height="3.95833" transform="translate(15.8335 19.7917)" fill="#557B2F"/>
<rect width="3.95833" height="3.95833" transform="translate(15.8335 23.75)" fill="#557B2F"/>
<rect width="3.95833" height="3.95833" transform="translate(15.8335 27.7083)" fill="#B4D69C"/>
<rect width="3.95833" height="3.95833" transform="translate(15.8335 31.6667)" fill="#B4D69C"/>
<rect width="3.95833" height="3.95833" transform="translate(15.8335 35.625)" fill="#B4D69C"/>
<rect width="3.95833" height="3.95834" transform="translate(15.8335 39.5833)" fill="#B4D69C"/>
<rect width="3.95833" height="3.95833" transform="translate(15.8335 43.5417)" fill="#557B2F"/>
<rect width="3.95833" height="3.95833" transform="translate(15.8335 47.5)" fill="#385713"/>
<rect width="3.95833" height="3.95834" transform="translate(15.8335 51.4583)" fill="#557B2F"/>
<rect width="3.95833" height="3.95833" transform="translate(15.8335 55.4167)" fill="black"/>
<rect width="3.95833" height="3.95833" transform="translate(15.8335 59.375)" fill="black"/>
<rect width="3.95833" height="3.95833" transform="translate(15.8335 63.3333)" fill="#FFE500"/>
<rect width="3.95833" height="3.95834" transform="translate(15.8335 67.2917)" fill="#FFE500"/>
<rect width="3.95833" height="3.95834" transform="translate(15.8335 71.25)" fill="#FFE500"/>
<rect width="3.95833" height="3.95833" transform="translate(15.8335 75.2083)" fill="#FFE500"/>
<rect width="3.95833" height="3.95834" transform="translate(15.8335 79.1667)" fill="#FFE500"/>
<rect width="3.95833" height="3.95834" transform="translate(15.8335 83.125)" fill="#FFE500"/>
<rect width="3.95833" height="3.95833" transform="translate(15.8335 87.0833)" fill="#FFE500"/>
<rect width="3.95833" height="3.95834" transform="translate(15.8335 91.0417)" fill="#FFE500"/>
<rect width="3.95833" height="3.95833" transform="translate(19.7915)" fill="#FFE500"/>
<rect width="3.95833" height="3.95833" transform="translate(19.7915 3.95833)" fill="black"/>
<rect width="3.95833" height="3.95833" transform="translate(19.7915 7.91667)" fill="#5C4A39"/>
<rect width="3.95833" height="3.95833" transform="translate(19.7915 11.875)" fill="black"/>
<rect width="3.95833" height="3.95833" transform="translate(19.7915 15.8333)" fill="#557B2F"/>
<rect width="3.95833" height="3.95833" transform="translate(19.7915 19.7917)" fill="#B4D69C"/>
<rect width="3.95833" height="3.95833" transform="translate(19.7915 23.75)" fill="#B4D69C"/>
<rect width="3.95833" height="3.95833" transform="translate(19.7915 27.7083)" fill="#B4D69C"/>
<rect width="3.95833" height="3.95833" transform="translate(19.7915 31.6667)" fill="#B4D69C"/>
<rect width="3.95833" height="3.95833" transform="translate(19.7915 35.625)" fill="#B4D69C"/>
<rect width="3.95833" height="3.95834" transform="translate(19.7915 39.5833)" fill="#385713"/>
<rect width="3.95833" height="3.95833" transform="translate(19.7915 43.5417)" fill="#385713"/>
<rect width="3.95833" height="3.95833" transform="translate(19.7915 47.5)" fill="#385713"/>
<rect width="3.95833" height="3.95834" transform="translate(19.7915 51.4583)" fill="#D29945"/>
<rect width="3.95833" height="3.95833" transform="translate(19.7915 55.4167)" fill="#D29945"/>
<rect width="3.95833" height="3.95833" transform="translate(19.7915 59.375)" fill="#F5CD45"/>
<rect width="3.95833" height="3.95833" transform="translate(19.7915 63.3333)" fill="black"/>
<rect width="3.95833" height="3.95834" transform="translate(19.7915 67.2917)" fill="#FFE500"/>
<rect width="3.95833" height="3.95834" transform="translate(19.7915 71.25)" fill="#FFE500"/>
<rect width="3.95833" height="3.95833" transform="translate(19.7915 75.2083)" fill="#FFE500"/>
<rect width="3.95833" height="3.95834" transform="translate(19.7915 79.1667)" fill="#FFE500"/>
<rect width="3.95833" height="3.95834" transform="translate(19.7915 83.125)" fill="#FFE500"/>
<rect width="3.95833" height="3.95833" transform="translate(19.7915 87.0833)" fill="#FFE500"/>
<rect width="3.95833" height="3.95834" transform="translate(19.7915 91.0417)" fill="#FFE500"/>
<rect width="3.95833" height="3.95833" transform="translate(23.75)" fill="#FFE500"/>
<rect width="3.95833" height="3.95833" transform="translate(23.75 3.95833)" fill="#FFE500"/>
<rect width="3.95833" height="3.95833" transform="translate(23.75 7.91667)" fill="black"/>
<rect width="3.95833" height="3.95833" transform="translate(23.75 11.875)" fill="#5C4A39"/>
<rect width="3.95833" height="3.95833" transform="translate(23.75 15.8333)" fill="#D29945"/>
<rect width="3.95833" height="3.95833" transform="translate(23.75 19.7917)" fill="#D29945"/>
<rect width="3.95833" height="3.95833" transform="translate(23.75 23.75)" fill="#B4D69C"/>
<rect width="3.95833" height="3.95833" transform="translate(23.75 27.7083)" fill="#B4D69C"/>
<rect width="3.95833" height="3.95833" transform="translate(23.75 31.6667)" fill="#B4D69C"/>
<rect width="3.95833" height="3.95833" transform="translate(23.75 35.625)" fill="#D29945"/>
<rect width="3.95833" height="3.95834" transform="translate(23.75 39.5833)" fill="#D29945"/>
<rect width="3.95833" height="3.95833" transform="translate(23.75 43.5417)" fill="#D29945"/>
<rect width="3.95833" height="3.95833" transform="translate(23.75 47.5)" fill="#D29945"/>
<rect width="3.95833" height="3.95834" transform="translate(23.75 51.4583)" fill="#D29945"/>
<rect width="3.95833" height="3.95833" transform="translate(23.75 55.4167)" fill="#D29945"/>
<rect width="3.95833" height="3.95833" transform="translate(23.75 59.375)" fill="#D29945"/>
<rect width="3.95833" height="3.95833" transform="translate(23.75 63.3333)" fill="#F5CD45"/>
<rect width="3.95833" height="3.95834" transform="translate(23.75 67.2917)" fill="black"/>
<rect width="3.95833" height="3.95834" transform="translate(23.75 71.25)" fill="#FFE500"/>
<rect width="3.95833" height="3.95833" transform="translate(23.75 75.2083)" fill="#FFE500"/>
<rect width="3.95833" height="3.95834" transform="translate(23.75 79.1667)" fill="#FFE500"/>
<rect width="3.95833" height="3.95834" transform="translate(23.75 83.125)" fill="#FFE500"/>
<rect width="3.95833" height="3.95833" transform="translate(23.75 87.0833)" fill="#FFE500"/>
<rect width="3.95833" height="3.95834" transform="translate(23.75 91.0417)" fill="#FFE500"/>
<rect width="3.95833" height="3.95833" transform="translate(27.7085)" fill="#FFE500"/>
<rect width="3.95833" height="3.95833" transform="translate(27.7085 3.95833)" fill="#FFE500"/>
<rect width="3.95833" height="3.95833" transform="translate(27.7085 7.91667)" fill="black"/>
<rect width="3.95833" height="3.95833" transform="translate(27.7085 11.875)" fill="#B4D69C"/>
<rect width="3.95833" height="3.95833" transform="translate(27.7085 15.8333)" fill="#F5CD45"/>
<rect width="3.95833" height="3.95833" transform="translate(27.7085 19.7917)" fill="#F5CD45"/>
<rect width="3.95833" height="3.95833" transform="translate(27.7085 23.75)" fill="#D29945"/>
<rect width="3.95833" height="3.95833" transform="translate(27.7085 27.7083)" fill="#D29945"/>
<rect width="3.95833" height="3.95833" transform="translate(27.7085 31.6667)" fill="#D29945"/>
<rect width="3.95833" height="3.95833" transform="translate(27.7085 35.625)" fill="#F5CD45"/>
<rect width="3.95833" height="3.95834" transform="translate(27.7085 39.5833)" fill="#F5CD45"/>
<rect width="3.95833" height="3.95833" transform="translate(27.7085 43.5417)" fill="#F5CD45"/>
<rect width="3.95833" height="3.95833" transform="translate(27.7085 47.5)" fill="#D29945"/>
<rect width="3.95833" height="3.95834" transform="translate(27.7085 51.4583)" fill="#D29945"/>
<rect width="3.95833" height="3.95833" transform="translate(27.7085 55.4167)" fill="#D29945"/>
<rect width="3.95833" height="3.95833" transform="translate(27.7085 59.375)" fill="#D29945"/>
<rect width="3.95833" height="3.95833" transform="translate(27.7085 63.3333)" fill="#D29945"/>
<rect width="3.95833" height="3.95834" transform="translate(27.7085 67.2917)" fill="#F5CD45"/>
<rect width="3.95833" height="3.95834" transform="translate(27.7085 71.25)" fill="black"/>
<rect width="3.95833" height="3.95833" transform="translate(27.7085 75.2083)" fill="#FFE500"/>
<rect width="3.95833" height="3.95834" transform="translate(27.7085 79.1667)" fill="#FFE500"/>
<rect width="3.95833" height="3.95834" transform="translate(27.7085 83.125)" fill="#FFE500"/>
<rect width="3.95833" height="3.95833" transform="translate(27.7085 87.0833)" fill="#FFE500"/>
<rect width="3.95833" height="3.95834" transform="translate(27.7085 91.0417)" fill="#FFE500"/>
<rect width="3.95833" height="3.95833" transform="translate(31.6665)" fill="#FFE500"/>
<rect width="3.95833" height="3.95833" transform="translate(31.6665 3.95833)" fill="black"/>
<rect width="3.95833" height="3.95833" transform="translate(31.6665 7.91667)" fill="#B4D69C"/>
<rect width="3.95833" height="3.95833" transform="translate(31.6665 11.875)" fill="#557B2F"/>
<rect width="3.95833" height="3.95833" transform="translate(31.6665 15.8333)" fill="#F5CD45"/>
<rect width="3.95833" height="3.95833" transform="translate(31.6665 19.7917)" fill="#F5CD45"/>
<rect width="3.95833" height="3.95833" transform="translate(31.6665 23.75)" fill="#FCEE87"/>
<rect width="3.95833" height="3.95833" transform="translate(31.6665 27.7083)" fill="#FCEE87"/>
<rect width="3.95833" height="3.95833" transform="translate(31.6665 31.6667)" fill="#F5CD45"/>
<rect width="3.95833" height="3.95833" transform="translate(31.6665 35.625)" fill="#F5CD45"/>
<rect width="3.95833" height="3.95834" transform="translate(31.6665 39.5833)" fill="#F5CD45"/>
<rect width="3.95833" height="3.95833" transform="translate(31.6665 43.5417)" fill="#F5CD45"/>
<rect width="3.95833" height="3.95833" transform="translate(31.6665 47.5)" fill="#F5CD45"/>
<rect width="3.95833" height="3.95834" transform="translate(31.6665 51.4583)" fill="#F5CD45"/>
<rect width="3.95833" height="3.95833" transform="translate(31.6665 55.4167)" fill="#D29945"/>
<rect width="3.95833" height="3.95833" transform="translate(31.6665 59.375)" fill="#D29945"/>
<rect width="3.95833" height="3.95833" transform="translate(31.6665 63.3333)" fill="#D29945"/>
<rect width="3.95833" height="3.95834" transform="translate(31.6665 67.2917)" fill="#D29945"/>
<rect width="3.95833" height="3.95834" transform="translate(31.6665 71.25)" fill="#F5CD45"/>
<rect width="3.95833" height="3.95833" transform="translate(31.6665 75.2083)" fill="black"/>
<rect width="3.95833" height="3.95834" transform="translate(31.6665 79.1667)" fill="#FFE500"/>
<rect width="3.95833" height="3.95834" transform="translate(31.6665 83.125)" fill="#FFE500"/>
<rect width="3.95833" height="3.95833" transform="translate(31.6665 87.0833)" fill="#FFE500"/>
<rect width="3.95833" height="3.95834" transform="translate(31.6665 91.0417)" fill="#FFE500"/>
<rect width="3.95833" height="3.95833" transform="translate(35.625)" fill="black"/>
<rect width="3.95833" height="3.95833" transform="translate(35.625 3.95833)" fill="#557B2F"/>
<rect width="3.95833" height="3.95833" transform="translate(35.625 7.91667)" fill="#557B2F"/>
<rect width="3.95833" height="3.95833" transform="translate(35.625 11.875)" fill="#557B2F"/>
<rect width="3.95833" height="3.95833" transform="translate(35.625 15.8333)" fill="#F5CD45"/>
<rect width="3.95833" height="3.95833" transform="translate(35.625 19.7917)" fill="#F5CD45"/>
<rect width="3.95833" height="3.95833" transform="translate(35.625 23.75)" fill="#FCEE87"/>
<rect width="3.95833" height="3.95833" transform="translate(35.625 27.7083)" fill="#FCEE87"/>
<rect width="3.95833" height="3.95833" transform="translate(35.625 31.6667)" fill="#FCEE87"/>
<rect width="3.95833" height="3.95833" transform="translate(35.625 35.625)" fill="#FCEE87"/>
<rect width="3.95833" height="3.95834" transform="translate(35.625 39.5833)" fill="#F5CD45"/>
<rect width="3.95833" height="3.95833" transform="translate(35.625 43.5417)" fill="#F5CD45"/>
<rect width="3.95833" height="3.95833" transform="translate(35.625 47.5)" fill="#F5CD45"/>
<rect width="3.95833" height="3.95834" transform="translate(35.625 51.4583)" fill="#F5CD45"/>
<rect width="3.95833" height="3.95833" transform="translate(35.625 55.4167)" fill="#F5CD45"/>
<rect width="3.95833" height="3.95833" transform="translate(35.625 59.375)" fill="#D29945"/>
<rect width="3.95833" height="3.95833" transform="translate(35.625 63.3333)" fill="#D29945"/>
<rect width="3.95833" height="3.95834" transform="translate(35.625 67.2917)" fill="#D29945"/>
<rect width="3.95833" height="3.95834" transform="translate(35.625 71.25)" fill="#F5CD45"/>
<rect width="3.95833" height="3.95833" transform="translate(35.625 75.2083)" fill="black"/>
<rect width="3.95833" height="3.95834" transform="translate(35.625 79.1667)" fill="#FFE500"/>
<rect width="3.95833" height="3.95834" transform="translate(35.625 83.125)" fill="#FFE500"/>
<rect width="3.95833" height="3.95833" transform="translate(35.625 87.0833)" fill="#FFE500"/>
<rect width="3.95833" height="3.95834" transform="translate(35.625 91.0417)" fill="#FFE500"/>
<rect width="3.95834" height="3.95833" transform="translate(39.5835)" fill="black"/>
<rect width="3.95834" height="3.95833" transform="translate(39.5835 3.95833)" fill="#385713"/>
<rect width="3.95834" height="3.95833" transform="translate(39.5835 7.91667)" fill="#385713"/>
<rect width="3.95834" height="3.95833" transform="translate(39.5835 11.875)" fill="#557B2F"/>
<rect width="3.95834" height="3.95833" transform="translate(39.5835 15.8333)" fill="#F5CD45"/>
<rect width="3.95834" height="3.95833" transform="translate(39.5835 19.7917)" fill="#F5CD45"/>
<rect width="3.95834" height="3.95833" transform="translate(39.5835 23.75)" fill="#FCEE87"/>
<rect width="3.95834" height="3.95833" transform="translate(39.5835 27.7083)" fill="#FCEE87"/>
<rect width="3.95834" height="3.95833" transform="translate(39.5835 31.6667)" fill="#FCEE87"/>
<rect width="3.95834" height="3.95833" transform="translate(39.5835 35.625)" fill="#FCEE87"/>
<rect width="3.95834" height="3.95834" transform="translate(39.5835 39.5833)" fill="#FCEE87"/>
<rect width="3.95834" height="3.95833" transform="translate(39.5835 43.5417)" fill="#F5CD45"/>
<rect width="3.95834" height="3.95833" transform="translate(39.5835 47.5)" fill="#F5CD45"/>
<rect width="3.95834" height="3.95834" transform="translate(39.5835 51.4583)" fill="#F5CD45"/>
<rect width="3.95834" height="3.95833" transform="translate(39.5835 55.4167)" fill="#F5CD45"/>
<rect width="3.95834" height="3.95833" transform="translate(39.5835 59.375)" fill="#F5CD45"/>
<rect width="3.95834" height="3.95833" transform="translate(39.5835 63.3333)" fill="#D29945"/>
<rect width="3.95834" height="3.95834" transform="translate(39.5835 67.2917)" fill="#D29945"/>
<rect width="3.95834" height="3.95834" transform="translate(39.5835 71.25)" fill="#D29945"/>
<rect width="3.95834" height="3.95833" transform="translate(39.5835 75.2083)" fill="#F5CD45"/>
<rect width="3.95834" height="3.95834" transform="translate(39.5835 79.1667)" fill="black"/>
<rect width="3.95834" height="3.95834" transform="translate(39.5835 83.125)" fill="#FFE500"/>
<rect width="3.95834" height="3.95833" transform="translate(39.5835 87.0833)" fill="#FFE500"/>
<rect width="3.95834" height="3.95834" transform="translate(39.5835 91.0417)" fill="#FFE500"/>
<rect width="3.95833" height="3.95833" transform="translate(43.5415)" fill="black"/>
<rect width="3.95833" height="3.95833" transform="translate(43.5415 3.95833)" fill="#385713"/>
<rect width="3.95833" height="3.95833" transform="translate(43.5415 7.91667)" fill="#385713"/>
<rect width="3.95833" height="3.95833" transform="translate(43.5415 11.875)" fill="#557B2F"/>
<rect width="3.95833" height="3.95833" transform="translate(43.5415 15.8333)" fill="#D29945"/>
<rect width="3.95833" height="3.95833" transform="translate(43.5415 19.7917)" fill="#F5CD45"/>
<rect width="3.95833" height="3.95833" transform="translate(43.5415 23.75)" fill="#FCEE87"/>
<rect width="3.95833" height="3.95833" transform="translate(43.5415 27.7083)" fill="#FCEE87"/>
<rect width="3.95833" height="3.95833" transform="translate(43.5415 31.6667)" fill="#FCEE87"/>
<rect width="3.95833" height="3.95833" transform="translate(43.5415 35.625)" fill="#FCEE87"/>
<rect width="3.95833" height="3.95834" transform="translate(43.5415 39.5833)" fill="#FCEE87"/>
<rect width="3.95833" height="3.95833" transform="translate(43.5415 43.5417)" fill="#F5CD45"/>
<rect width="3.95833" height="3.95833" transform="translate(43.5415 47.5)" fill="#F5CD45"/>
<rect width="3.95833" height="3.95834" transform="translate(43.5415 51.4583)" fill="#F5CD45"/>
<rect width="3.95833" height="3.95833" transform="translate(43.5415 55.4167)" fill="#F5CD45"/>
<rect width="3.95833" height="3.95833" transform="translate(43.5415 59.375)" fill="#F5CD45"/>
<rect width="3.95833" height="3.95833" transform="translate(43.5415 63.3333)" fill="#F5CD45"/>
<rect width="3.95833" height="3.95834" transform="translate(43.5415 67.2917)" fill="#D29945"/>
<rect width="3.95833" height="3.95834" transform="translate(43.5415 71.25)" fill="#D29945"/>
<rect width="3.95833" height="3.95833" transform="translate(43.5415 75.2083)" fill="#F5CD45"/>
<rect width="3.95833" height="3.95834" transform="translate(43.5415 79.1667)" fill="black"/>
<rect width="3.95833" height="3.95834" transform="translate(43.5415 83.125)" fill="#FFE500"/>
<rect width="3.95833" height="3.95833" transform="translate(43.5415 87.0833)" fill="#FFE500"/>
<rect width="3.95833" height="3.95834" transform="translate(43.5415 91.0417)" fill="#FFE500"/>
<rect width="3.95833" height="3.95833" transform="translate(47.5)" fill="#FFE500"/>
<rect width="3.95833" height="3.95833" transform="translate(47.5 3.95833)" fill="black"/>
<rect width="3.95833" height="3.95833" transform="translate(47.5 7.91667)" fill="#385713"/>
<rect width="3.95833" height="3.95833" transform="translate(47.5 11.875)" fill="#557B2F"/>
<rect width="3.95833" height="3.95833" transform="translate(47.5 15.8333)" fill="#D29945"/>
<rect width="3.95833" height="3.95833" transform="translate(47.5 19.7917)" fill="#F5CD45"/>
<rect width="3.95833" height="3.95833" transform="translate(47.5 23.75)" fill="#FCEE87"/>
<rect width="3.95833" height="3.95833" transform="translate(47.5 27.7083)" fill="#FCEE87"/>
<rect width="3.95833" height="3.95833" transform="translate(47.5 31.6667)" fill="#FCEE87"/>
<rect width="3.95833" height="3.95833" transform="translate(47.5 35.625)" fill="#FCEE87"/>
<rect width="3.95833" height="3.95834" transform="translate(47.5 39.5833)" fill="#FCEE87"/>
<rect width="3.95833" height="3.95833" transform="translate(47.5 43.5417)" fill="#FCEE87"/>
<rect width="3.95833" height="3.95833" transform="translate(47.5 47.5)" fill="#F5CD45"/>
<rect width="3.95833" height="3.95834" transform="translate(47.5 51.4583)" fill="#F5CD45"/>
<rect width="3.95833" height="3.95833" transform="translate(47.5 55.4167)" fill="#F5CD45"/>
<rect width="3.95833" height="3.95833" transform="translate(47.5 59.375)" fill="#F5CD45"/>
<rect width="3.95833" height="3.95833" transform="translate(47.5 63.3333)" fill="#F5CD45"/>
<rect width="3.95833" height="3.95834" transform="translate(47.5 67.2917)" fill="#D29945"/>
<rect width="3.95833" height="3.95834" transform="translate(47.5 71.25)" fill="#D29945"/>
<rect width="3.95833" height="3.95833" transform="translate(47.5 75.2083)" fill="#D29945"/>
<rect width="3.95833" height="3.95834" transform="translate(47.5 79.1667)" fill="#F5CD45"/>
<rect width="3.95833" height="3.95834" transform="translate(47.5 83.125)" fill="black"/>
<rect width="3.95833" height="3.95833" transform="translate(47.5 87.0833)" fill="#FFE500"/>
<rect width="3.95833" height="3.95834" transform="translate(47.5 91.0417)" fill="#FFE500"/>
<rect width="3.95834" height="3.95833" transform="translate(51.4585)" fill="#FFE500"/>
<rect width="3.95834" height="3.95833" transform="translate(51.4585 3.95833)" fill="black"/>
<rect width="3.95834" height="3.95833" transform="translate(51.4585 7.91667)" fill="#385713"/>
<rect width="3.95834" height="3.95833" transform="translate(51.4585 11.875)" fill="#557B2F"/>
<rect width="3.95834" height="3.95833" transform="translate(51.4585 15.8333)" fill="#D29945"/>
<rect width="3.95834" height="3.95833" transform="translate(51.4585 19.7917)" fill="#F5CD45"/>
<rect width="3.95834" height="3.95833" transform="translate(51.4585 23.75)" fill="#FCEE87"/>
<rect width="3.95834" height="3.95833" transform="translate(51.4585 27.7083)" fill="#FCEE87"/>
<rect width="3.95834" height="3.95833" transform="translate(51.4585 31.6667)" fill="#FCEE87"/>
<rect width="3.95834" height="3.95833" transform="translate(51.4585 35.625)" fill="#FCEE87"/>
<rect width="3.95834" height="3.95834" transform="translate(51.4585 39.5833)" fill="#FCEE87"/>
<rect width="3.95834" height="3.95833" transform="translate(51.4585 43.5417)" fill="#FCEE87"/>
<rect width="3.95834" height="3.95833" transform="translate(51.4585 47.5)" fill="#FCEE87"/>
<rect width="3.95834" height="3.95834" transform="translate(51.4585 51.4583)" fill="#F5CD45"/>
<rect width="3.95834" height="3.95833" transform="translate(51.4585 55.4167)" fill="#F5CD45"/>
<rect width="3.95834" height="3.95833" transform="translate(51.4585 59.375)" fill="#F5CD45"/>
<rect width="3.95834" height="3.95833" transform="translate(51.4585 63.3333)" fill="#F5CD45"/>
<rect width="3.95834" height="3.95834" transform="translate(51.4585 67.2917)" fill="#F5CD45"/>
<rect width="3.95834" height="3.95834" transform="translate(51.4585 71.25)" fill="#D29945"/>
<rect width="3.95834" height="3.95833" transform="translate(51.4585 75.2083)" fill="#D29945"/>
<rect width="3.95834" height="3.95834" transform="translate(51.4585 79.1667)" fill="#D29945"/>
<rect width="3.95834" height="3.95834" transform="translate(51.4585 83.125)" fill="black"/>
<rect width="3.95834" height="3.95833" transform="translate(51.4585 87.0833)" fill="#FFE500"/>
<rect width="3.95834" height="3.95834" transform="translate(51.4585 91.0417)" fill="#FFE500"/>
<rect width="3.95833" height="3.95833" transform="translate(55.4165)" fill="#FFE500"/>
<rect width="3.95833" height="3.95833" transform="translate(55.4165 3.95833)" fill="black"/>
<rect width="3.95833" height="3.95833" transform="translate(55.4165 7.91667)" fill="#557B2F"/>
<rect width="3.95833" height="3.95833" transform="translate(55.4165 11.875)" fill="black"/>
<rect width="3.95833" height="3.95833" transform="translate(55.4165 15.8333)" fill="#D29945"/>
<rect width="3.95833" height="3.95833" transform="translate(55.4165 19.7917)" fill="#F5CD45"/>
<rect width="3.95833" height="3.95833" transform="translate(55.4165 23.75)" fill="#FCEE87"/>
<rect width="3.95833" height="3.95833" transform="translate(55.4165 27.7083)" fill="#FCEE87"/>
<rect width="3.95833" height="3.95833" transform="translate(55.4165 31.6667)" fill="#FCEE87"/>
<rect width="3.95833" height="3.95833" transform="translate(55.4165 35.625)" fill="#FCEE87"/>
<rect width="3.95833" height="3.95834" transform="translate(55.4165 39.5833)" fill="#FCEE87"/>
<rect width="3.95833" height="3.95833" transform="translate(55.4165 43.5417)" fill="#FCEE87"/>
<rect width="3.95833" height="3.95833" transform="translate(55.4165 47.5)" fill="#FCEE87"/>
<rect width="3.95833" height="3.95834" transform="translate(55.4165 51.4583)" fill="#F5CD45"/>
<rect width="3.95833" height="3.95833" transform="translate(55.4165 55.4167)" fill="#F5CD45"/>
<rect width="3.95833" height="3.95833" transform="translate(55.4165 59.375)" fill="#F5CD45"/>
<rect width="3.95833" height="3.95833" transform="translate(55.4165 63.3333)" fill="#F5CD45"/>
<rect width="3.95833" height="3.95834" transform="translate(55.4165 67.2917)" fill="#F5CD45"/>
<rect width="3.95833" height="3.95834" transform="translate(55.4165 71.25)" fill="#D29945"/>
<rect width="3.95833" height="3.95833" transform="translate(55.4165 75.2083)" fill="#D29945"/>
<rect width="3.95833" height="3.95834" transform="translate(55.4165 79.1667)" fill="#D29945"/>
<rect width="3.95833" height="3.95834" transform="translate(55.4165 83.125)" fill="black"/>
<rect width="3.95833" height="3.95833" transform="translate(55.4165 87.0833)" fill="#FFE500"/>
<rect width="3.95833" height="3.95834" transform="translate(55.4165 91.0417)" fill="#FFE500"/>
<rect width="3.95833" height="3.95833" transform="translate(59.375)" fill="#FFE500"/>
<rect width="3.95833" height="3.95833" transform="translate(59.375 3.95833)" fill="black"/>
<rect width="3.95833" height="3.95833" transform="translate(59.375 7.91667)" fill="black"/>
<rect width="3.95833" height="3.95833" transform="translate(59.375 11.875)" fill="black"/>
<rect width="3.95833" height="3.95833" transform="translate(59.375 15.8333)" fill="#D29945"/>
<rect width="3.95833" height="3.95833" transform="translate(59.375 19.7917)" fill="#F5CD45"/>
<rect width="3.95833" height="3.95833" transform="translate(59.375 23.75)" fill="#F5CD45"/>
<rect width="3.95833" height="3.95833" transform="translate(59.375 27.7083)" fill="#FCEE87"/>
<rect width="3.95833" height="3.95833" transform="translate(59.375 31.6667)" fill="#FCEE87"/>
<rect width="3.95833" height="3.95833" transform="translate(59.375 35.625)" fill="#FCEE87"/>
<rect width="3.95833" height="3.95834" transform="translate(59.375 39.5833)" fill="#FCEE87"/>
<rect width="3.95833" height="3.95833" transform="translate(59.375 43.5417)" fill="#FCEE87"/>
<rect width="3.95833" height="3.95833" transform="translate(59.375 47.5)" fill="#FCEE87"/>
<rect width="3.95833" height="3.95834" transform="translate(59.375 51.4583)" fill="#FCEE87"/>
<rect width="3.95833" height="3.95833" transform="translate(59.375 55.4167)" fill="#F5CD45"/>
<rect width="3.95833" height="3.95833" transform="translate(59.375 59.375)" fill="#F5CD45"/>
<rect width="3.95833" height="3.95833" transform="translate(59.375 63.3333)" fill="#F5CD45"/>
<rect width="3.95833" height="3.95834" transform="translate(59.375 67.2917)" fill="#F5CD45"/>
<rect width="3.95833" height="3.95834" transform="translate(59.375 71.25)" fill="#D29945"/>
<rect width="3.95833" height="3.95833" transform="translate(59.375 75.2083)" fill="#D29945"/>
<rect width="3.95833" height="3.95834" transform="translate(59.375 79.1667)" fill="#D29945"/>
<rect width="3.95833" height="3.95834" transform="translate(59.375 83.125)" fill="black"/>
<rect width="3.95833" height="3.95833" transform="translate(59.375 87.0833)" fill="#FFE500"/>
<rect width="3.95833" height="3.95834" transform="translate(59.375 91.0417)" fill="#FFE500"/>
<rect width="3.95833" height="3.95833" transform="translate(63.3335)" fill="#FFE500"/>
<rect width="3.95833" height="3.95833" transform="translate(63.3335 3.95833)" fill="#FFE500"/>
<rect width="3.95833" height="3.95833" transform="translate(63.3335 7.91667)" fill="#FFE500"/>
<rect width="3.95833" height="3.95833" transform="translate(63.3335 11.875)" fill="#FFE500"/>
<rect width="3.95833" height="3.95833" transform="translate(63.3335 15.8333)" fill="black"/>
<rect width="3.95833" height="3.95833" transform="translate(63.3335 19.7917)" fill="#D29945"/>
<rect width="3.95833" height="3.95833" transform="translate(63.3335 23.75)" fill="#F5CD45"/>
<rect width="3.95833" height="3.95833" transform="translate(63.3335 27.7083)" fill="#F5CD45"/>
<rect width="3.95833" height="3.95833" transform="translate(63.3335 31.6667)" fill="#F5CD45"/>
<rect width="3.95833" height="3.95833" transform="translate(63.3335 35.625)" fill="#FCEE87"/>
<rect width="3.95833" height="3.95834" transform="translate(63.3335 39.5833)" fill="#FCEE87"/>
<rect width="3.95833" height="3.95833" transform="translate(63.3335 43.5417)" fill="#FCEE87"/>
<rect width="3.95833" height="3.95833" transform="translate(63.3335 47.5)" fill="#FCEE87"/>
<rect width="3.95833" height="3.95834" transform="translate(63.3335 51.4583)" fill="#F5CD45"/>
<rect width="3.95833" height="3.95833" transform="translate(63.3335 55.4167)" fill="#F5CD45"/>
<rect width="3.95833" height="3.95833" transform="translate(63.3335 59.375)" fill="#F5CD45"/>
<rect width="3.95833" height="3.95833" transform="translate(63.3335 63.3333)" fill="#F5CD45"/>
<rect width="3.95833" height="3.95834" transform="translate(63.3335 67.2917)" fill="#F5CD45"/>
<rect width="3.95833" height="3.95834" transform="translate(63.3335 71.25)" fill="#D29945"/>
<rect width="3.95833" height="3.95833" transform="translate(63.3335 75.2083)" fill="#D29945"/>
<rect width="3.95833" height="3.95834" transform="translate(63.3335 79.1667)" fill="black"/>
<rect width="3.95833" height="3.95834" transform="translate(63.3335 83.125)" fill="#FFE500"/>
<rect width="3.95833" height="3.95833" transform="translate(63.3335 87.0833)" fill="#FFE500"/>
<rect width="3.95833" height="3.95834" transform="translate(63.3335 91.0417)" fill="#FFE500"/>
<rect width="3.95834" height="3.95833" transform="translate(67.2915)" fill="#FFE500"/>
<rect width="3.95834" height="3.95833" transform="translate(67.2915 3.95833)" fill="#FFE500"/>
<rect width="3.95834" height="3.95833" transform="translate(67.2915 7.91667)" fill="#FFE500"/>
<rect width="3.95834" height="3.95833" transform="translate(67.2915 11.875)" fill="#FFE500"/>
<rect width="3.95834" height="3.95833" transform="translate(67.2915 15.8333)" fill="#FFE500"/>
<rect width="3.95834" height="3.95833" transform="translate(67.2915 19.7917)" fill="black"/>
<rect width="3.95834" height="3.95833" transform="translate(67.2915 23.75)" fill="#D29945"/>
<rect width="3.95834" height="3.95833" transform="translate(67.2915 27.7083)" fill="#F5CD45"/>
<rect width="3.95834" height="3.95833" transform="translate(67.2915 31.6667)" fill="#F5CD45"/>
<rect width="3.95834" height="3.95833" transform="translate(67.2915 35.625)" fill="#F5CD45"/>
<rect width="3.95834" height="3.95834" transform="translate(67.2915 39.5833)" fill="#F5CD45"/>
<rect width="3.95834" height="3.95833" transform="translate(67.2915 43.5417)" fill="#F5CD45"/>
<rect width="3.95834" height="3.95833" transform="translate(67.2915 47.5)" fill="#F5CD45"/>
<rect width="3.95834" height="3.95834" transform="translate(67.2915 51.4583)" fill="#F5CD45"/>
<rect width="3.95834" height="3.95833" transform="translate(67.2915 55.4167)" fill="#F5CD45"/>
<rect width="3.95834" height="3.95833" transform="translate(67.2915 59.375)" fill="#F5CD45"/>
<rect width="3.95834" height="3.95833" transform="translate(67.2915 63.3333)" fill="#F5CD45"/>
<rect width="3.95834" height="3.95834" transform="translate(67.2915 67.2917)" fill="#F5CD45"/>
<rect width="3.95834" height="3.95834" transform="translate(67.2915 71.25)" fill="#D29945"/>
<rect width="3.95834" height="3.95833" transform="translate(67.2915 75.2083)" fill="#D29945"/>
<rect width="3.95834" height="3.95834" transform="translate(67.2915 79.1667)" fill="black"/>
<rect width="3.95834" height="3.95834" transform="translate(67.2915 83.125)" fill="#FFE500"/>
<rect width="3.95834" height="3.95833" transform="translate(67.2915 87.0833)" fill="#FFE500"/>
<rect width="3.95834" height="3.95834" transform="translate(67.2915 91.0417)" fill="#FFE500"/>
<rect width="3.95834" height="3.95833" transform="translate(71.25)" fill="#FFE500"/>
<rect width="3.95834" height="3.95833" transform="translate(71.25 3.95833)" fill="#FFE500"/>
<rect width="3.95834" height="3.95833" transform="translate(71.25 7.91667)" fill="#FFE500"/>
<rect width="3.95834" height="3.95833" transform="translate(71.25 11.875)" fill="#FFE500"/>
<rect width="3.95834" height="3.95833" transform="translate(71.25 15.8333)" fill="#FFE500"/>
<rect width="3.95834" height="3.95833" transform="translate(71.25 19.7917)" fill="#FFE500"/>
<rect width="3.95834" height="3.95833" transform="translate(71.25 23.75)" fill="black"/>
<rect width="3.95834" height="3.95833" transform="translate(71.25 27.7083)" fill="#D29945"/>
<rect width="3.95834" height="3.95833" transform="translate(71.25 31.6667)" fill="#D29945"/>
<rect width="3.95834" height="3.95833" transform="translate(71.25 35.625)" fill="#F5CD45"/>
<rect width="3.95834" height="3.95834" transform="translate(71.25 39.5833)" fill="#F5CD45"/>
<rect width="3.95834" height="3.95833" transform="translate(71.25 43.5417)" fill="#F5CD45"/>
<rect width="3.95834" height="3.95833" transform="translate(71.25 47.5)" fill="#F5CD45"/>
<rect width="3.95834" height="3.95834" transform="translate(71.25 51.4583)" fill="#F5CD45"/>
<rect width="3.95834" height="3.95833" transform="translate(71.25 55.4167)" fill="#F5CD45"/>
<rect width="3.95834" height="3.95833" transform="translate(71.25 59.375)" fill="#F5CD45"/>
<rect width="3.95834" height="3.95833" transform="translate(71.25 63.3333)" fill="#D29945"/>
<rect width="3.95834" height="3.95834" transform="translate(71.25 67.2917)" fill="#D29945"/>
<rect width="3.95834" height="3.95834" transform="translate(71.25 71.25)" fill="#D29945"/>
<rect width="3.95834" height="3.95833" transform="translate(71.25 75.2083)" fill="#D29945"/>
<rect width="3.95834" height="3.95834" transform="translate(71.25 79.1667)" fill="black"/>
<rect width="3.95834" height="3.95834" transform="translate(71.25 83.125)" fill="#FFE500"/>
<rect width="3.95834" height="3.95833" transform="translate(71.25 87.0833)" fill="#FFE500"/>
<rect width="3.95834" height="3.95834" transform="translate(71.25 91.0417)" fill="#FFE500"/>
<rect width="3.95833" height="3.95833" transform="translate(75.2085)" fill="#FFE500"/>
<rect width="3.95833" height="3.95833" transform="translate(75.2085 3.95833)" fill="#FFE500"/>
<rect width="3.95833" height="3.95833" transform="translate(75.2085 7.91667)" fill="#FFE500"/>
<rect width="3.95833" height="3.95833" transform="translate(75.2085 11.875)" fill="#FFE500"/>
<rect width="3.95833" height="3.95833" transform="translate(75.2085 15.8333)" fill="#FFE500"/>
<rect width="3.95833" height="3.95833" transform="translate(75.2085 19.7917)" fill="#FFE500"/>
<rect width="3.95833" height="3.95833" transform="translate(75.2085 23.75)" fill="#FFE500"/>
<rect width="3.95833" height="3.95833" transform="translate(75.2085 27.7083)" fill="black"/>
<rect width="3.95833" height="3.95833" transform="translate(75.2085 31.6667)" fill="black"/>
<rect width="3.95833" height="3.95833" transform="translate(75.2085 35.625)" fill="#D29945"/>
<rect width="3.95833" height="3.95834" transform="translate(75.2085 39.5833)" fill="#D29945"/>
<rect width="3.95833" height="3.95833" transform="translate(75.2085 43.5417)" fill="#D29945"/>
<rect width="3.95833" height="3.95833" transform="translate(75.2085 47.5)" fill="#F5CD45"/>
<rect width="3.95833" height="3.95834" transform="translate(75.2085 51.4583)" fill="#F5CD45"/>
<rect width="3.95833" height="3.95833" transform="translate(75.2085 55.4167)" fill="#D29945"/>
<rect width="3.95833" height="3.95833" transform="translate(75.2085 59.375)" fill="#D29945"/>
<rect width="3.95833" height="3.95833" transform="translate(75.2085 63.3333)" fill="#D29945"/>
<rect width="3.95833" height="3.95834" transform="translate(75.2085 67.2917)" fill="#D29945"/>
<rect width="3.95833" height="3.95834" transform="translate(75.2085 71.25)" fill="black"/>
<rect width="3.95833" height="3.95833" transform="translate(75.2085 75.2083)" fill="black"/>
<rect width="3.95833" height="3.95834" transform="translate(75.2085 79.1667)" fill="#FFE500"/>
<rect width="3.95833" height="3.95834" transform="translate(75.2085 83.125)" fill="#FFE500"/>
<rect width="3.95833" height="3.95833" transform="translate(75.2085 87.0833)" fill="#FFE500"/>
<rect width="3.95833" height="3.95834" transform="translate(75.2085 91.0417)" fill="#FFE500"/>
<rect width="3.95834" height="3.95833" transform="translate(79.1665)" fill="#FFE500"/>
<rect width="3.95834" height="3.95833" transform="translate(79.1665 3.95833)" fill="#FFE500"/>
<rect width="3.95834" height="3.95833" transform="translate(79.1665 7.91667)" fill="#FFE500"/>
<rect width="3.95834" height="3.95833" transform="translate(79.1665 11.875)" fill="#FFE500"/>
<rect width="3.95834" height="3.95833" transform="translate(79.1665 15.8333)" fill="#FFE500"/>
<rect width="3.95834" height="3.95833" transform="translate(79.1665 19.7917)" fill="#FFE500"/>
<rect width="3.95834" height="3.95833" transform="translate(79.1665 23.75)" fill="#FFE500"/>
<rect width="3.95834" height="3.95833" transform="translate(79.1665 27.7083)" fill="#FFE500"/>
<rect width="3.95834" height="3.95833" transform="translate(79.1665 31.6667)" fill="#FFE500"/>
<rect width="3.95834" height="3.95833" transform="translate(79.1665 35.625)" fill="black"/>
<rect width="3.95834" height="3.95834" transform="translate(79.1665 39.5833)" fill="black"/>
<rect width="3.95834" height="3.95833" transform="translate(79.1665 43.5417)" fill="#D29945"/>
<rect width="3.95834" height="3.95833" transform="translate(79.1665 47.5)" fill="#D29945"/>
<rect width="3.95834" height="3.95834" transform="translate(79.1665 51.4583)" fill="#D29945"/>
<rect width="3.95834" height="3.95833" transform="translate(79.1665 55.4167)" fill="#D29945"/>
<rect width="3.95834" height="3.95833" transform="translate(79.1665 59.375)" fill="black"/>
<rect width="3.95834" height="3.95833" transform="translate(79.1665 63.3333)" fill="black"/>
<rect width="3.95834" height="3.95834" transform="translate(79.1665 67.2917)" fill="black"/>
<rect width="3.95834" height="3.95834" transform="translate(79.1665 71.25)" fill="#FFE500"/>
<rect width="3.95834" height="3.95833" transform="translate(79.1665 75.2083)" fill="#FFE500"/>
<rect width="3.95834" height="3.95834" transform="translate(79.1665 79.1667)" fill="#FFE500"/>
<rect width="3.95834" height="3.95834" transform="translate(79.1665 83.125)" fill="#FFE500"/>
<rect width="3.95834" height="3.95833" transform="translate(79.1665 87.0833)" fill="#FFE500"/>
<rect width="3.95834" height="3.95834" transform="translate(79.1665 91.0417)" fill="#FFE500"/>
<rect width="3.95834" height="3.95833" transform="translate(83.125)" fill="#FFE500"/>
<rect width="3.95834" height="3.95833" transform="translate(83.125 3.95833)" fill="#FFE500"/>
<rect width="3.95834" height="3.95833" transform="translate(83.125 7.91667)" fill="#FFE500"/>
<rect width="3.95834" height="3.95833" transform="translate(83.125 11.875)" fill="#FFE500"/>
<rect width="3.95834" height="3.95833" transform="translate(83.125 15.8333)" fill="#FFE500"/>
<rect width="3.95834" height="3.95833" transform="translate(83.125 19.7917)" fill="#FFE500"/>
<rect width="3.95834" height="3.95833" transform="translate(83.125 23.75)" fill="#FFE500"/>
<rect width="3.95834" height="3.95833" transform="translate(83.125 27.7083)" fill="#FFE500"/>
<rect width="3.95834" height="3.95833" transform="translate(83.125 31.6667)" fill="#FFE500"/>
<rect width="3.95834" height="3.95833" transform="translate(83.125 35.625)" fill="#FFE500"/>
<rect width="3.95834" height="3.95834" transform="translate(83.125 39.5833)" fill="#FFE500"/>
<rect width="3.95834" height="3.95833" transform="translate(83.125 43.5417)" fill="black"/>
<rect width="3.95834" height="3.95833" transform="translate(83.125 47.5)" fill="black"/>
<rect width="3.95834" height="3.95834" transform="translate(83.125 51.4583)" fill="black"/>
<rect width="3.95834" height="3.95833" transform="translate(83.125 55.4167)" fill="black"/>
<rect width="3.95834" height="3.95833" transform="translate(83.125 59.375)" fill="#FFE500"/>
<rect width="3.95834" height="3.95833" transform="translate(83.125 63.3333)" fill="#FFE500"/>
<rect width="3.95834" height="3.95834" transform="translate(83.125 67.2917)" fill="#FFE500"/>
<rect width="3.95834" height="3.95834" transform="translate(83.125 71.25)" fill="#FFE500"/>
<rect width="3.95834" height="3.95833" transform="translate(83.125 75.2083)" fill="#FFE500"/>
<rect width="3.95834" height="3.95834" transform="translate(83.125 79.1667)" fill="#FFE500"/>
<rect width="3.95834" height="3.95834" transform="translate(83.125 83.125)" fill="#FFE500"/>
<rect width="3.95834" height="3.95833" transform="translate(83.125 87.0833)" fill="#FFE500"/>
<rect width="3.95834" height="3.95834" transform="translate(83.125 91.0417)" fill="#FFE500"/>
<rect width="3.95833" height="3.95833" transform="translate(87.0835)" fill="#FFE500"/>
<rect width="3.95833" height="3.95833" transform="translate(87.0835 3.95833)" fill="#FFE500"/>
<rect width="3.95833" height="3.95833" transform="translate(87.0835 7.91667)" fill="#FFE500"/>
<rect width="3.95833" height="3.95833" transform="translate(87.0835 11.875)" fill="#FFE500"/>
<rect width="3.95833" height="3.95833" transform="translate(87.0835 15.8333)" fill="#FFE500"/>
<rect width="3.95833" height="3.95833" transform="translate(87.0835 19.7917)" fill="#FFE500"/>
<rect width="3.95833" height="3.95833" transform="translate(87.0835 23.75)" fill="#FFE500"/>
<rect width="3.95833" height="3.95833" transform="translate(87.0835 27.7083)" fill="#FFE500"/>
<rect width="3.95833" height="3.95833" transform="translate(87.0835 31.6667)" fill="#FFE500"/>
<rect width="3.95833" height="3.95833" transform="translate(87.0835 35.625)" fill="#FFE500"/>
<rect width="3.95833" height="3.95834" transform="translate(87.0835 39.5833)" fill="#FFE500"/>
<rect width="3.95833" height="3.95833" transform="translate(87.0835 43.5417)" fill="#FFE500"/>
<rect width="3.95833" height="3.95833" transform="translate(87.0835 47.5)" fill="#FFE500"/>
<rect width="3.95833" height="3.95834" transform="translate(87.0835 51.4583)" fill="#FFE500"/>
<rect width="3.95833" height="3.95833" transform="translate(87.0835 55.4167)" fill="#FFE500"/>
<rect width="3.95833" height="3.95833" transform="translate(87.0835 59.375)" fill="#FFE500"/>
<rect width="3.95833" height="3.95833" transform="translate(87.0835 63.3333)" fill="#FFE500"/>
<rect width="3.95833" height="3.95834" transform="translate(87.0835 67.2917)" fill="#FFE500"/>
<rect width="3.95833" height="3.95834" transform="translate(87.0835 71.25)" fill="#FFE500"/>
<rect width="3.95833" height="3.95833" transform="translate(87.0835 75.2083)" fill="#FFE500"/>
<rect width="3.95833" height="3.95834" transform="translate(87.0835 79.1667)" fill="#FFE500"/>
<rect width="3.95833" height="3.95834" transform="translate(87.0835 83.125)" fill="#FFE500"/>
<rect width="3.95833" height="3.95833" transform="translate(87.0835 87.0833)" fill="#FFE500"/>
<rect width="3.95833" height="3.95834" transform="translate(87.0835 91.0417)" fill="#FFE500"/>
<rect width="3.95834" height="3.95833" transform="translate(91.0415)" fill="#FFE500"/>
<rect width="3.95834" height="3.95833" transform="translate(91.0415 3.95833)" fill="#FFE500"/>
<rect width="3.95834" height="3.95833" transform="translate(91.0415 7.91667)" fill="#FFE500"/>
<rect width="3.95834" height="3.95833" transform="translate(91.0415 11.875)" fill="#FFE500"/>
<rect width="3.95834" height="3.95833" transform="translate(91.0415 15.8333)" fill="#FFE500"/>
<rect width="3.95834" height="3.95833" transform="translate(91.0415 19.7917)" fill="#FFE500"/>
<rect width="3.95834" height="3.95833" transform="translate(91.0415 23.75)" fill="#FFE500"/>
<rect width="3.95834" height="3.95833" transform="translate(91.0415 27.7083)" fill="#FFE500"/>
<rect width="3.95834" height="3.95833" transform="translate(91.0415 31.6667)" fill="#FFE500"/>
<rect width="3.95834" height="3.95833" transform="translate(91.0415 35.625)" fill="#FFE500"/>
<rect width="3.95834" height="3.95834" transform="translate(91.0415 39.5833)" fill="#FFE500"/>
<rect width="3.95834" height="3.95833" transform="translate(91.0415 43.5417)" fill="#FFE500"/>
<rect width="3.95834" height="3.95833" transform="translate(91.0415 47.5)" fill="#FFE500"/>
<rect width="3.95834" height="3.95834" transform="translate(91.0415 51.4583)" fill="#FFE500"/>
<rect width="3.95834" height="3.95833" transform="translate(91.0415 55.4167)" fill="#FFE500"/>
<rect width="3.95834" height="3.95833" transform="translate(91.0415 59.375)" fill="#FFE500"/>
<rect width="3.95834" height="3.95833" transform="translate(91.0415 63.3333)" fill="#FFE500"/>
<rect width="3.95834" height="3.95834" transform="translate(91.0415 67.2917)" fill="#FFE500"/>
<rect width="3.95834" height="3.95834" transform="translate(91.0415 71.25)" fill="#FFE500"/>
<rect width="3.95834" height="3.95833" transform="translate(91.0415 75.2083)" fill="#FFE500"/>
<rect width="3.95834" height="3.95834" transform="translate(91.0415 79.1667)" fill="#FFE500"/>
<rect width="3.95834" height="3.95834" transform="translate(91.0415 83.125)" fill="#FFE500"/>
<rect width="3.95834" height="3.95833" transform="translate(91.0415 87.0833)" fill="#FFE500"/>
<rect width="3.95834" height="3.95834" transform="translate(91.0415 91.0417)" fill="#FFE500"/>
</g>
<defs>
<clipPath id="clip0_34_55074">
<rect width="95" height="95" fill="white"/>
</clipPath>
</defs>
</svg>
